<svg width="28" height="22" viewBox="0 0 28 22" fill="none" xmlns="http://www.w3.org/2000/svg">
<path d="M26.663 22H26.6224C24.9944 21.3624 23.2424 21.0893 21.4936 21.2006L6.66285 21.6829L10.729 18.9728L11.2278 19.4418L11.6371 18.9728L11.6073 18.6157L16.4163 21.3418L18.7909 19.3805C19.8801 18.4809 20.798 17.3981 21.5017 16.1827L24.4131 11.1622C24.5099 10.9454 24.5446 10.7067 24.5136 10.4719C24.4825 10.2371 24.3869 10.0151 24.2369 9.82982L19.3195 3.74073C18.8614 3.15447 18.3219 3.10651 17.3678 3.14648L12.0682 4.74537C11.6514 4.83368 11.2183 4.81161 10.8131 4.68141C9.58508 4.28435 6.74689 3.02923 6.74689 3.02923C6.41888 3.13849 2.95179 5.20904 2.63462 5.35028L1.12743 9.05436L1.21688 11.4101C1.27859 13.0979 1.53134 14.7737 1.97048 16.4066L2.39336 17.9735C2.54247 18.8033 2.94751 19.568 3.55358 20.1639L5.79811 21.7122L3.80568 21.7762C3.75512 21.7734 3.70444 21.7734 3.65388 21.7762C1.82952 20.7609 1.44188 18.8449 0.550029 15.0555C-2.16076 3.52755 5.63547 -0.666861 13.2718 0.0846152C21.9192 0.945348 25.1477 2.96527 27.7934 16.7397C28.3085 19.3912 27.8341 21.0194 26.663 22Z" fill="#50473D"/>
<path d="M24.2369 9.81917L19.3195 3.74074C18.8614 3.15448 18.322 3.10652 17.3678 3.14649L12.0682 4.74537C11.6514 4.83369 11.2183 4.81162 10.8131 4.68142C9.5851 4.28436 6.7469 3.02924 6.7469 3.02924C6.4189 3.13849 2.9518 5.20905 2.63464 5.35028L1.12744 9.05437L1.2169 11.4101C1.2786 13.0979 1.53136 14.7737 1.9705 16.4066L2.39338 17.9735C2.54249 18.8033 2.94753 19.568 3.5536 20.164L5.79813 21.7122L6.65473 21.6829L10.7209 18.9728L10.3739 16.7184L11.4582 16.6411L11.6263 18.6157L16.4163 21.3418L18.7909 19.3805C19.8801 18.4809 20.798 17.3981 21.5017 16.1827L24.4131 11.1622C24.512 10.9441 24.5479 10.7033 24.5169 10.4664C24.4858 10.2295 24.3889 10.0055 24.2369 9.81917V9.81917ZM8.60379 16.7983C7.71194 17.3952 5.95806 16.0735 4.90357 13.6352C3.84907 11.1969 3.99545 8.80388 5.22344 8.27092C6.45143 7.73795 8.74746 9.73123 9.42787 12.2921C10.1029 14.7944 9.57696 16.1401 8.60379 16.7983ZM18.0346 13.3607C16.278 15.5458 13.7543 16.4545 12.3908 15.4046C11.2007 14.4879 10.8266 11.1409 13.1145 9.54203C15.3428 7.9538 17.8015 6.80527 18.7611 7.47147C20.168 8.47611 19.7939 11.1676 18.0346 13.3527V13.3607Z" fill="#5A5046"/>
<path d="M7.71192 10.957C7.52202 10.9368 7.32991 10.9562 7.14818 11.014C6.96645 11.0718 6.7992 11.1667 6.6574 11.2925C6.5156 11.4183 6.40245 11.5722 6.32537 11.744C6.24829 11.9158 6.20903 12.1017 6.21014 12.2894C6.16948 13.0889 6.62489 14.0802 7.53301 14.1548C8.19715 14.2188 8.85587 13.5686 8.94533 12.8411C9.05647 11.927 8.47636 11.0796 7.71192 10.957ZM7.5818 13.5606C7.38021 13.5606 7.18315 13.5018 7.01553 13.3917C6.84792 13.2816 6.71728 13.1251 6.64013 12.942C6.56299 12.7589 6.5428 12.5575 6.58213 12.3631C6.62146 12.1688 6.71853 11.9902 6.86108 11.8501C7.00362 11.71 7.18524 11.6145 7.38295 11.5759C7.58067 11.5372 7.78561 11.5571 7.97185 11.6329C8.1581 11.7087 8.31728 11.8372 8.42928 12.0019C8.54128 12.1667 8.60106 12.3604 8.60106 12.5586C8.60141 12.6903 8.57529 12.8207 8.5242 12.9424C8.4731 13.0642 8.39804 13.1748 8.30332 13.2679C8.2086 13.361 8.0961 13.4348 7.97228 13.485C7.84845 13.5352 7.71575 13.5609 7.5818 13.5606V13.5606Z" fill="#D3B92A"/>
<path d="M9.42782 12.2921C8.74741 9.73121 6.47035 7.75925 5.22339 8.27089C3.97643 8.78253 3.84631 11.2022 4.90352 13.6272C5.96073 16.0521 7.7119 17.3872 8.60374 16.7983C9.57692 16.1401 10.1028 14.7943 9.42782 12.2921ZM8.9453 12.8544C8.85585 13.5819 8.19713 14.2321 7.53298 14.1681C6.62487 14.0828 6.17759 13.0889 6.21012 12.3027C6.209 12.115 6.24827 11.9291 6.32535 11.7573C6.40243 11.5855 6.51558 11.4316 6.65738 11.3058C6.79918 11.18 6.96642 11.0851 7.14816 11.0273C7.32989 10.9695 7.522 10.9501 7.71189 10.9703C8.47634 11.0796 9.05644 11.927 8.9453 12.8544Z" fill="#302E2F"/>
<path d="M8.60101 12.5586C8.60155 12.7569 8.54222 12.9508 8.43055 13.116C8.31888 13.2811 8.15988 13.4099 7.97369 13.4862C7.78749 13.5624 7.58247 13.5826 7.38457 13.5443C7.18668 13.5059 7.00481 13.4107 6.86199 13.2707C6.71918 13.1307 6.62183 12.9521 6.58228 12.7577C6.54274 12.5633 6.56276 12.3617 6.63983 12.1784C6.71689 11.9952 6.84753 11.8385 7.0152 11.7283C7.18288 11.6181 7.38005 11.5593 7.58175 11.5593C7.85161 11.5593 8.11045 11.6645 8.30152 11.8518C8.49259 12.0391 8.60029 12.2933 8.60101 12.5586V12.5586Z" fill="#231F20"/>
<path d="M15.3346 10.4827C15.036 10.4827 14.7441 10.5697 14.4958 10.7328C14.2475 10.8959 14.0539 11.1278 13.9396 11.399C13.8254 11.6702 13.7955 11.9686 13.8537 12.2566C13.912 12.5445 14.0558 12.809 14.2669 13.0165C14.4781 13.2241 14.7472 13.3655 15.04 13.4228C15.3329 13.48 15.6365 13.4506 15.9124 13.3383C16.1883 13.226 16.4241 13.0357 16.5901 12.7916C16.756 12.5475 16.8445 12.2606 16.8445 11.967C16.8445 11.5733 16.6854 11.1958 16.4023 10.9174C16.1191 10.6391 15.7351 10.4827 15.3346 10.4827V10.4827ZM14.9334 12.8437C14.7563 12.8442 14.5829 12.793 14.4354 12.6966C14.2879 12.6002 14.1728 12.4629 14.1048 12.3021C14.0367 12.1413 14.0188 11.9643 14.0532 11.7934C14.0876 11.6226 14.1729 11.4657 14.2982 11.3425C14.4234 11.2194 14.5831 11.1356 14.7569 11.1017C14.9306 11.0679 15.1107 11.0855 15.2743 11.1524C15.4379 11.2193 15.5775 11.3324 15.6756 11.4774C15.7737 11.6225 15.8258 11.7928 15.8253 11.967C15.8253 12.1995 15.7313 12.4225 15.5641 12.5869C15.3968 12.7513 15.17 12.8437 14.9334 12.8437V12.8437Z" fill="#D3B92A"/>
<path d="M18.7611 7.47148C17.8015 6.79462 15.3428 7.94315 13.1145 9.51539C10.8266 11.1303 11.2007 14.4693 12.3907 15.378C13.7461 16.4279 16.278 15.5192 18.0346 13.3341C19.7912 11.1489 20.168 8.47611 18.7611 7.47148ZM15.3346 13.4513C15.036 13.4513 14.7441 13.3643 14.4958 13.2012C14.2475 13.0381 14.054 12.8062 13.9397 12.535C13.8254 12.2638 13.7955 11.9654 13.8537 11.6774C13.912 11.3895 14.0558 11.125 14.267 10.9175C14.4781 10.7099 14.7472 10.5685 15.0401 10.5112C15.333 10.454 15.6366 10.4834 15.9125 10.5957C16.1884 10.708 16.4242 10.8983 16.5901 11.1424C16.756 11.3865 16.8446 11.6734 16.8446 11.967C16.8446 12.3607 16.6855 12.7382 16.4023 13.0166C16.1191 13.2949 15.7351 13.4513 15.3346 13.4513V13.4513Z" fill="#302E2F"/>
<path d="M14.9334 11.0876C14.7564 11.0871 14.5831 11.1382 14.4357 11.2345C14.2882 11.3308 14.1731 11.468 14.105 11.6286C14.0369 11.7893 14.0188 11.9662 14.053 12.1369C14.0872 12.3077 14.1722 12.4646 14.2972 12.5879C14.4222 12.7111 14.5816 12.7952 14.7552 12.8293C14.9288 12.8634 15.1088 12.8462 15.2724 12.7797C15.436 12.7132 15.5759 12.6005 15.6743 12.4558C15.7727 12.3112 15.8253 12.141 15.8253 11.967C15.8253 11.7342 15.7314 11.511 15.5642 11.3461C15.397 11.1813 15.1702 11.0883 14.9334 11.0876V11.0876ZM14.6461 12.1535C14.5892 12.1535 14.5337 12.137 14.4864 12.1059C14.4392 12.0749 14.4023 12.0308 14.3806 11.9792C14.3588 11.9276 14.3532 11.8708 14.3642 11.816C14.3753 11.7612 14.4027 11.7108 14.4429 11.6713C14.4831 11.6318 14.5343 11.6049 14.59 11.594C14.6457 11.5831 14.7035 11.5887 14.756 11.6101C14.8085 11.6315 14.8534 11.6677 14.885 11.7141C14.9166 11.7606 14.9334 11.8152 14.9334 11.8711C14.9334 11.908 14.926 11.9446 14.9115 11.9788C14.897 12.0129 14.8758 12.0439 14.8491 12.0699C14.8224 12.0959 14.7907 12.1164 14.7558 12.1304C14.721 12.1443 14.6837 12.1512 14.6461 12.1509V12.1535Z" fill="#231F20"/>
<path d="M14.9334 11.8684C14.9373 11.9076 14.9328 11.9472 14.9202 11.9846C14.9076 12.022 14.8872 12.0564 14.8603 12.0856C14.8333 12.1148 14.8005 12.1381 14.7638 12.1541C14.7272 12.17 14.6875 12.1783 14.6474 12.1783C14.6074 12.1783 14.5677 12.17 14.5311 12.1541C14.4944 12.1381 14.4616 12.1148 14.4346 12.0856C14.4077 12.0564 14.3873 12.022 14.3747 11.9846C14.3621 11.9472 14.3576 11.9076 14.3615 11.8684C14.3684 11.7986 14.4015 11.7338 14.4544 11.6866C14.5072 11.6395 14.5761 11.6133 14.6474 11.6133C14.7188 11.6133 14.7877 11.6395 14.8405 11.6866C14.8934 11.7338 14.9265 11.7986 14.9334 11.8684V11.8684Z" fill="white"/>
<path d="M7.86911 12.5612C7.87299 12.6005 7.86849 12.6401 7.85589 12.6775C7.84329 12.7149 7.82286 12.7493 7.79593 12.7785C7.76899 12.8076 7.73615 12.831 7.6995 12.8469C7.66285 12.8629 7.6232 12.8711 7.58312 12.8711C7.54303 12.8711 7.50339 12.8629 7.46674 12.8469C7.43009 12.831 7.39724 12.8076 7.37031 12.7785C7.34338 12.7493 7.32295 12.7149 7.31035 12.6775C7.29774 12.6401 7.29324 12.6005 7.29713 12.5612C7.30406 12.4914 7.33718 12.4266 7.39004 12.3795C7.44291 12.3323 7.51174 12.3062 7.58312 12.3062C7.6545 12.3062 7.72333 12.3323 7.77619 12.3795C7.82906 12.4266 7.86218 12.4914 7.86911 12.5612V12.5612Z" fill="white"/>
<path d="M11.6127 18.613L11.4284 18.5091L10.7344 18.9728L10.3739 16.7184L11.4447 16.6411L11.6127 18.613Z" fill="#D38429"/>
<path d="M11.6425 18.9728L11.2332 19.4418L10.7344 18.9728L11.4283 18.5091L11.6127 18.613L11.6425 18.9728Z" fill="#D38429"/>
</svg>
