<svg xmlns="http://www.w3.org/2000/svg" width="380" height="69" fill="none" xmlns:v="https://vecta.io/nano"><path d="M99.68 0c.004.006.007.015.011.021L99.688 0h-.008zm.011.021l3.321 27.113-.188-.129.221.398.472 3.855-.196.774h-1.502l-2.339-1.787 1.406-2.54c-.955.006-1.935.071-2.833.425-.234.092-.431.218-.615.357l-.472-.599 2.798-8.391c-1.073.001-2.216.186-3.071.886-1.516 1.24-1.589 3.249-1.577 5.156l-1.469-1.863c.043.339.214.643.346.953l1.124 2.376v.053c-.008.31-.064.553-.152.754l-.038.003-1.87.197-.68-2.07c-.572-1.458-1.286-2.903-2.295-4.106l3.72-11.159c-.585.585-1.099 1.237-1.569 1.917-2.043 2.954-3.313 6.361-4.418 9.759-.761 2.341-1.387 4.726-1.902 7.134-.425.13-.847.271-1.267.417l-.243-.185a64.4 64.4 0 0 0-.58-2.522c-.89-3.524-1.965-7.076-3.789-10.232l.765-2.573a7.6 7.6 0 0 0-1.655 1.161c-.948-1.389-2.087-2.709-3.604-3.482l1.706 5.736c-.076.11-.16.216-.234.328-1.921 2.906-3.083 6.223-4.005 9.577-.806.015-1.621.093-2.386.357-.546-2.717-1.24-5.403-2.096-8.037l-.568-1.66c.036-.082.08-.16.115-.243.132-.309.303-.614.346-.953l-.607.77c-.952-2.688-2.079-5.325-3.703-7.673a13.83 13.83 0 0 0-1.571-1.917l3.814 11.441-6.804 8.635a6.84 6.84 0 0 0-1.043-.594 2.81 2.81 0 0 0-.342-.135l.947 1.284-1.176 1.492c-.361-.585-.738-1.16-1.143-1.716-.84-1.153-1.855-2.208-2.999-3.083l2.861-23.359c-2.271 4.539-3.68 9.465-4.553 14.451-.355 2.027-.622 4.063-.826 6.104-.146.369-.282.742-.419 1.114-.445-.18-.901-.331-1.365-.451-.563-.561-1.159-1.087-1.795-1.55-3.914-2.849-8.61-4.612-13.396-5.175-.492-.058-.986-.101-1.481-.102l3.402 2.473 12.626 9.179a9.95 9.95 0 0 0-1.055.661c-.804-.571-1.685-1.037-2.631-1.321l1.231 2.49c-.588.565-1.122 1.181-1.61 1.837h-4.397a19.9 19.9 0 0 0-.801-1.08l1.866-2.565.306-.367.085-.171 1.348-1.852c-2.314.061-4.471.942-6.315 2.283a10.4 10.4 0 0 0-.843-.575l.191.346.278.502a14.78 14.78 0 0 0-1.988 1.87l-.262-1.211c-.797-3.428-1.742-7.077-4.216-9.714l1.792 12.535h-.422a14.17 14.17 0 0 0-1.828-1.52l.571-2.807a21.98 21.98 0 0 0-1.587 2.153 15.28 15.28 0 0 0-1.091-.575c-.581-2.746-1.344-5.457-2.341-8.079l.26-.779c-.181 0-.364.015-.547.027a43.07 43.07 0 0 0-1.466-3.277l.42 3.426c-.535.133-1.045.354-1.478.708-1.851 1.515-1.553 4.176-1.574 6.394-.014 0-.027-.002-.041-.002l.041.033v.247c-.035 1.514-1.171 1.541-2.043 1.926-.777-.271-1.565-.51-2.359-.726l-.224-1.015.563-.465c-.224.002-.447.012-.671.024a70.29 70.29 0 0 0-1.505-5.376c-1.104-3.398-2.375-6.805-4.418-9.759-.47-.68-.985-1.331-1.569-1.917l5.747 17.238a16.15 16.15 0 0 0-1.844.415 51.27 51.27 0 0 0-4.023-.516c-.131-.012-.263-.018-.394-.027-.554-1.172-1.205-2.296-1.947-3.36l.851-1.536c-.63.003-1.269.038-1.889.158-.043-.052-.081-.107-.124-.158l.036.176c-.2.042-.398.092-.593.155-.028.009-.054.024-.082.035L.93 19.036c.043.339.214.643.346.953.574 1.339 1.237 2.632 1.949 3.899-.59.556-.943 1.336-.937 2.167.008.903.416 2.44-1.03 2.363-.401-.021-.88.018-1.257.187v6.767.934 1.736V69h379.854V52.344v-1.465-7.673-12.51c-.65-1.366-1.507-2.632-2.664-3.589l2.664-1.937v-4.325a27.67 27.67 0 0 0-6.442 3.468c-1.178.858-2.251 1.899-3.137 3.073l-.092-2.139 1.323-1.011c-.457.177-.903.378-1.352.572-.199-3.467-.547-6.924-1.147-10.355-.873-4.987-2.281-9.912-4.551-14.451l2.714 22.157-.032.149c-.91.976-1.612 2.09-2.176 3.279.163-3.428-.021-6.879-.268-10.294l-2.645 12.997-3.635-4.612c.042.339.214.643.346.953.769 1.793 1.693 3.508 2.697 5.178-.845.605-1.67 1.235-2.485 1.878.012-.495.012-.991-.021-1.486-.037-.531-.119-1.144-.552-1.512-.127-.108-.274-.144-.427-.155.289 1.131.492 2.284.634 3.446-.024.018-.046.036-.069.055h-.723a79.24 79.24 0 0 0-.555-3.355c.23-.097.477-.164.714-.147-.225-.877-.495-1.742-.827-2.589-.268-.684-.582-1.358-.928-2.014-.286-1.127-.603-2.246-.945-3.357l3.298-9.894c-.584.585-1.1 1.237-1.57 1.917-1.09 1.576-1.955 3.282-2.697 5.045-.964-2.743-2.103-5.436-3.759-7.83-.471-.68-.985-1.331-1.57-1.917l4.222 12.662-.614 1.799c-1.028 3.163-1.818 6.403-2.404 9.679h-.562c-.239-1.384-.53-2.758-.858-4.123.335-1.95.451-3.936.303-5.91l-1.214 2.457c-.757-2.599-1.696-5.153-3.046-7.49l.767-2.575c-.608.31-1.157.707-1.657 1.161-.948-1.389-2.088-2.707-3.605-3.481l1.706 5.733c-.076.111-.16.218-.234.329-2.185 3.307-3.4 7.142-4.381 10.963l-3.488-7.059-.617-2.006-.567-1.66c.036-.082.079-.16.114-.243.133-.309.304-.614.347-.953l-.607.77c-.952-2.688-2.08-5.325-3.704-7.673-.471-.68-.985-1.331-1.57-1.917l3.814 11.441-3.449 4.377c-.093-.552-.252-1.095-.515-1.617l-.436.787c-.885-4.373-2.215-8.67-4.214-12.666l2.033 16.603-1.615 2.917-.222.284a26.74 26.74 0 0 0-1.143-1.718c-.84-1.153-1.854-2.209-2.999-3.084l2.861-23.358c-2.271 4.539-3.678 9.465-4.551 14.451-.355 2.029-.624 4.066-.828 6.109-.146.367-.281.739-.417 1.11a10.99 10.99 0 0 0-1.369-.451 15.33 15.33 0 0 0-1.791-1.55c-3.915-2.849-8.612-4.612-13.398-5.175-.492-.058-.986-.101-1.482-.102l3.404 2.475 12.625 9.178a10.04 10.04 0 0 0-1.28.817c-1.074.805-1.989 1.781-2.785 2.851h-2.8l-1.015-2.282c-.279.139-.626.273-.945.251a31.99 31.99 0 0 0 1.734-1.981l.155-.315-1.425 1.088.804-1.089a2.81 2.81 0 0 0-.341.135 6.93 6.93 0 0 0-1.247.746c-.311-1.595-.475-3.22-.545-4.847-.001.027 0 .084 0 .108-.05 1.495-.216 2.992-.113 4.489.015.228.044.468.1.7-.232.207-.443.437-.653.668a13.78 13.78 0 0 0-1.495-1.337 10.46 10.46 0 0 0-.965-.66l.191.345 1.467 2.652c-.065.094-.142.183-.205.279-.041.063-.075.131-.114.194l-1.124.859h-2.186c-.631-1.248-1.372-2.438-2.221-3.551l-3.562-17.514c-.401 5.545-.646 11.187.509 16.664.012.058.028.113.041.171-3.378-2.712-6.994-5.165-10.93-6.977-.018-.889-.192-1.765-.61-2.592l-1.046 1.889c-.168-.068-.331-.146-.5-.212l.434.331-2.759 4.981-.76 1.373c-3.339-2.538-6.918-4.767-10.799-6.369l.414-.315c-.196.076-.385.167-.58.246-.194-.079-.382-.17-.578-.246l.414.315c-2.431 1.004-4.743 2.251-6.952 3.671l-3.137-5.662c-1.159 2.295-.504 4.969.468 7.223.027.064.068.125.098.188-1.083.783-2.14 1.6-3.176 2.442a16.15 16.15 0 0 0-.763.19l-.303-1.273-.111 1.396-.43.132a21.17 21.17 0 0 0-.647-.827l.2.987a15.64 15.64 0 0 0-2.052.925l-.735-1.329c.276-.317.547-.64.809-.968l.155-.315-1.177.9-.499-.9a5.76 5.76 0 0 0-.37.959c-.069-.085-.131-.174-.202-.259l.119.588c-.03.133-.058.266-.08.4l-1.569 1.199.445-2.186c-.638.762-1.216 1.568-1.745 2.406l-.072-.031-.962-.422-.516-2.174-4.716-19.871c-.509 5.571-.609 11.337 1.057 16.722.395 1.276.913 2.572 1.619 3.735-.143.099-.293.189-.431.295-.163.125-.317.261-.473.393a38.2 38.2 0 0 0-3.305-.831c-.059-.03-.115-.062-.174-.09-.112-.051-.224-.099-.342-.135l.102.138c-.236-.046-.474-.085-.71-.127l-.012-.009v.009l-.758-.135c.04-.187.073-.377.09-.574l-1.004.439c-.939-.133-1.88-.247-2.82-.329-.694-.061-1.389-.108-2.085-.11l.155.067 2.799 1.226-2.031.889c-.178-.133-.353-.25-.529-.367-.285-.606-.739-1.116-1.436-1.39-.898-.353-1.877-.42-2.832-.426l1.449 2.616c-.176-.148-.347-.3-.531-.439-.479-.359-.991-.675-1.527-.942-.172-.663-.369-1.319-.59-1.967l5.282-10.691c-1.311.393-2.501 1.124-3.528 2.02-1.461 1.276-2.618 2.843-3.549 4.54-.931-1.697-2.086-3.265-3.548-4.54-1.026-.896-2.216-1.627-3.527-2.02l5.28 10.69a29.5 29.5 0 0 0-.265.828c-.456.062-.907.163-1.337.332-1.492.588-1.906 2.238-1.817 3.652.027.437-.051.735-.193.95h-4.778c-.049-.808-.123-1.613-.217-2.417l5.965-2.611c-.696.002-1.391.049-2.085.11-1.388.122-2.779.302-4.16.539-.076-.449-.147-.899-.242-1.346-.823-3.904-2.487-7.656-5.062-10.726l2.57 12.63a35.52 35.52 0 0 0-3.388.992l-2.629-2.009 2.362-11.613c-2.574 3.07-4.239 6.822-5.062 10.726-.399 1.892-.622 3.804-.738 5.725h-1.418l3.347-16.451c-2.574 3.07-4.238 6.822-5.062 10.726-.219 1.041-.374 2.088-.501 3.139-.534-.85-1.119-1.67-1.766-2.442l.676 3.323c-.892.064-2.008.193-1.942-1.053.044-.835-.163-2.017-1.292-1.889-2.276.26-3.982-2.233-6.083-3.138-1.602-.69-3.415-1.207-5.155-1.041 0-1.54-.175-3.077-.616-4.598l-4.196 12.585c-.46-.604-.963-1.172-1.51-1.697l1.23-2.492c-.945.284-1.825.75-2.629 1.321-.463-.329-.954-.619-1.469-.862l.228-.459c-.236.071-.467.156-.695.247a8.09 8.09 0 0 0-.694-.247l.227.459c-.244.115-.482.24-.715.376l-.61-.411.413.523c-.191.117-.375.244-.557.373-.27-.192-.55-.37-.839-.534l2.037-4.579c-.317.173-.59.418-.85.665-.997.946-1.734 2.119-2.331 3.359a8.31 8.31 0 0 0-.646-.23l.39.79-.399.933c-.332.847-.604 1.712-.828 2.589.142-.009.286.009.431.052a17.47 17.47 0 0 0-.475.664h-.121l.165-.716a.73.73 0 0 0-.35.107l-2.717-13.346c-.217 3.006-.378 6.04-.305 9.062-.557.251-1.064.576-1.53.954l-2.02-14.125c-.237 4.557-.431 9.158-.355 13.741-.019-.015-.036-.03-.054-.044-.31-.237-.633-.459-.967-.66l1.039 1.876c.016.588.052 1.174.079 1.761l-.665.508-3.562-10.684c-.526 1.817-.68 3.656-.597 5.495-.459-.659-.971-1.28-1.535-1.854 1.312-2.063 2.498-4.195 3.462-6.441.132-.309.303-.614.346-.953l-4.982 6.322c-.24-.198-.478-.4-.728-.581-3.914-2.849-8.609-4.612-13.396-5.175-.491-.058-.986-.101-1.481-.102l.155.113 12.7 9.234-.662.84.073-.359c-.226.269-.436.548-.648.828-1.585-.528-3.256-.81-4.924-.828l.966.799-.242-.099.389.298c-.774.405-1.452.967-2.051 1.608a32.17 32.17 0 0 0-1.484-.538c.975-1.617 1.585-3.436 1.636-5.358l-4.634 3.369a15.79 15.79 0 0 0-.55.064c-.106-1.352-.443-2.633-1.524-3.517-.855-.699-1.998-.885-3.071-.885l1.59 4.769a52.49 52.49 0 0 0-3.332-.401c-.693-.061-1.388-.108-2.085-.11l1.714.751-1.115.851-.498-.901a5.7 5.7 0 0 0-.51 1.553c-.451-.619-.96-1.189-1.557-1.672l.532-1.594 1.701-5.101c-1.074.001-2.217.185-3.071.884-1.928 1.577-1.521 4.409-1.574 6.676-.028 1.163-.705 1.446-1.413 1.689a33.41 33.41 0 0 0-1.848-.63c-.205-.329-.421-.652-.643-.97l.851-1.536c-.628.003-1.265.044-1.884.165-.044-.054-.084-.111-.129-.165l.036.18a5.28 5.28 0 0 0-.854.245c-.585.23-.999.628-1.287 1.106-.48-.094-.96-.181-1.442-.259a4.46 4.46 0 0 0 .089-.574l-1.003.439a52.36 52.36 0 0 0-1.908-.234l12.209-8.877c-.495.002-.988.044-1.48.102-4.786.563-9.483 2.326-13.398 5.175-.049.036-.094.078-.142.114l-.226-.285c.017.132.063.255.108.379a14.94 14.94 0 0 0-2.877 2.866c-.154-4.333-.519-8.653-1.268-12.934-.871-4.978-2.276-9.896-4.54-14.429v.001zm204.233 23.717c.022-.882-.039-3.137-.045-2.343a43.66 43.66 0 0 0 .045 2.343zm-37.465-3.384l6.153 4.702 3.981 3.04-.069.124c-.757-.116-1.516-.21-2.275-.291-.092-.31-.206-.619-.357-.923l-.464.837-.264-.027a25.96 25.96 0 0 0-1.873-.103l.015-.006c-.037 0-.075.003-.113.003s-.074-.003-.113-.003l.016.006c-.626.009-1.252.049-1.875.103-1.132.099-2.265.235-3.394.409l-.811-.386v-.002c-.38-.172-.762-.339-1.148-.5l.246-.334c-.117.036-.231.087-.343.138-.058.027-.113.058-.171.086l-.539-.223.39.298c-.579.303-1.112.686-1.594 1.13l-1.775-3.203 6.377-4.875zm-199.734.563l.696 2.089a6.44 6.44 0 0 0-.472.406c-1.393 1.321-2.291 3.079-2.986 4.852-.059.149-.105.303-.16.453-.217-.17-.445-.325-.679-.47l.299-.541c-.194.117-.374.253-.56.382-.155-.086-.312-.169-.473-.243 1.583-2.231 3.069-4.522 4.335-6.929h0zm264.769 0l.696 2.089c-.164.128-.321.263-.471.406-.233.221-.448.458-.654.701l-.632-1.277c.37-.631.721-1.272 1.061-1.918h0zm-48.856.622l3.491 2.667 4.79 3.658a21.71 21.71 0 0 0-.524.669c-1.585-.528-3.256-.81-4.924-.828l.658.544 2.865 2.37c-.276.463-.536.933-.78 1.414h-.079c-.355-.221-.714-.43-1.071-.61-2.114-1.064-4.349-1.849-6.641-2.425l-.774-.65c.691-.944 1.5-1.871 1.939-2.89.528-1.225.95-2.575 1.05-3.92h0zm-204.122.538l2.747 9.239c-.077.038-.157.069-.234.108a13.52 13.52 0 0 0-1.071.61h-3.167l.138-.465a6.98 6.98 0 0 0-.767.465h-.155l-.288-.553 2.797-9.404zm264.768 0l.702 2.362-3.529 7.145 2.827-9.507zm-253.593.933l2.291 5.154a45.37 45.37 0 0 0-2.279.383l.23-.691c-.251.251-.483.52-.71.793-.51.107-1.02.218-1.525.345l1.994-5.984zm242.612.332l1.598 4.793-.45.812-1.916-3.879.768-1.726zm-264.769.002l1.853 5.554c-.089.108-.175.217-.248.337l-1.891-1.443.047-.085c-.029.018-.055.039-.083.056l-.074-.056.039.08c-.291.181-.577.372-.85.58-.533.408-1.029.857-1.494 1.335-.028-.031-.058-.062-.086-.093l2.786-6.266zm262.427.268c0 .648.024 1.296.074 1.942-.518.86-.94 1.783-1.304 2.711a22.15 22.15 0 0 0-.827 2.589c.187-.012.382.021.57.089l-.527.951-.083-.892c.012-.05.027-.099.04-.149-.018.002-.037-.002-.055 0a87.12 87.12 0 0 0-.404-3.255l.063-.247c.857-1.224 1.678-2.469 2.453-3.739h0zm24.278.064l2.786 8.358H355.7l-1.875-1.552.876-2.627c-.584.585-1.1 1.237-1.57 1.917-.505.729-.961 1.485-1.38 2.262h-.299l2.787-8.358zm-330.033.294l.527 4.296a16.22 16.22 0 0 0-1.831-.381l1.304-3.915zm155.927.922l3.978 2.202c-.148.093-.289.195-.432.294a6.64 6.64 0 0 0-.486-.247c-.112-.051-.224-.1-.342-.136l.466.632c-.016.012-.031.018-.044.031-.534.409-1.028.858-1.494 1.337-.581-.639-1.237-1.207-1.988-1.624a26.34 26.34 0 0 0 .342-2.487v-.001zM4.852 26.603l1.152 1.743.524 2.573c-.643-1.103-1.455-2.093-2.488-2.849l.812-1.467zm252.807.476c.652.883 1.375 1.741 1.802 2.657-1.416.468-2.805 1.017-4.141 1.689-.357.18-.716.389-1.07.61h-.08a23.67 23.67 0 0 0-.778-1.412l.223-.185 3.298-2.73-.081.002.652-.498.175-.132zm-73.486.05l.591.328 1.581.875a14.57 14.57 0 0 0-.696.672c-.507-.558-1.071-1.062-1.708-1.456l.232-.418zm18.621.255c.59.736 1.223 1.433 1.873 2.114-.856.324-1.699.683-2.524 1.086l.651-3.2zm-41.016.066c0 .091.008.182.008.273l-.482.367.474-.639zm101.953.069l1.138.87a42.15 42.15 0 0 0-2.091.422l.953-1.291zm112.834.041l.577 2.428c-.63-.126-1.28-.16-1.921-.163l1.223 2.208h-6.004l.018-.035 6.107-4.438zm-227.359.074l.812.591a23.34 23.34 0 0 0-.643.934 15.43 15.43 0 0 0-.913-.489l.744-1.036h0zm195.733.009h.002l.031.108-.041-.074c0-.012.009-.024.009-.035h-.001zm-73.747.111l1.839.804-.796 1.437a46.46 46.46 0 0 0-2.347.437 48.55 48.55 0 0 0-2.076-1.199l.091-.041 1.007-.44 2.282-.998zm-142.319.015l1.655.726.203.088c-.796.382-1.557.831-2.272 1.346l-.52-.939c.276-.318.545-.64.808-.97l.126-.251zm-61.66.085l.083.166a31.63 31.63 0 0 0 1.566 1.81c-.222.619-.294 1.309-.254 1.953.008.091 0 .169 0 .249h-2.179c-.176-.36-.365-.714-.586-1.052-.063-.096-.139-.186-.205-.28l1.576-2.846zm223.786.069l2.398 1.834c-.021.034-.046.067-.069.102-.79-.462-1.624-.85-2.486-1.166l.157-.77zm-111.318.03l1.367 1.852c-.594.7-1.13 1.45-1.626 2.227h-.766a45.85 45.85 0 0 0 1.025-4.079h0zm-117.413.067l.233.315c-.015.012-.029.018-.044.031-.424.324-.818.681-1.198 1.05l1.008-1.396h0zm121.378.059l1.118 1.515.155.212c-.5.589-.959 1.213-1.388 1.859-.213-.478-.456-.943-.744-1.384-.064-.096-.139-.184-.206-.279l1.065-1.923zm-40.731.139l.716.547.198.152 1.188.983-1.03 1.307c-.291-.174-.584-.339-.876-.486-.501-.252-1.009-.485-1.522-.707l1.326-1.796zm18.888.024a43.71 43.71 0 0 0 .334 3.79h-.474c-.338-.531-.697-1.049-1.08-1.547l-.116-.809c.454-.47.908-.94 1.336-1.434h0zm79.427.105a10.21 10.21 0 0 0 .77 1.034c-.374-.137-.751-.262-1.129-.386l.359-.649zm-70.687.063l.21.425-.307-.226.097-.199zm-97.773.177l-.254.933-.05.213c-.08-.055-.158-.114-.24-.166l.544-.979zm37.59.018l.348.641-1.8.787a3.82 3.82 0 0 0-.102-.299l1.554-1.128zm-106.621.009l.812 3.421H1.845l1.035-1.87.859-1.552zm146.884.053l1.371.997-.537.968c-.342-.291-.7-.559-1.067-.817l.233-1.149zM8.53 28.681l1.184.52.201.088c-.219.105-.434.214-.647.329l-.737-.937zm178.606.091l4.913 2.721.585.545h-4.594v-.003c-.163-.107-.346-.139-.534-.146.021.049.037.099.056.149h-.981c.291-.082.616-.16.925-.149-.233-.557-.512-1.095-.845-1.603-.063-.096-.14-.184-.206-.279l.681-1.235zm-124.306.012l.646.874a22.93 22.93 0 0 0-.34 1.199c.199-.015.408.024.607.1-.279.351-.546.71-.801 1.08h-.072c.081-.395.167-.79.267-1.18-.152.012-.3.048-.426.155-.185.157-.296.364-.376.586a9.56 9.56 0 0 0-.362-.613c-.063-.096-.139-.184-.205-.279l1.065-1.923zm61.933.001l.195.821.224.945-.224.171-.82.627c-.066-.032-.133-.06-.199-.092l.824-2.471zm205.797.343c.217.984.496 1.955.823 2.907h-1.78c.365-.953.686-1.923.957-2.907zm14.095 0c.104.377.214.753.332 1.127l-.879 1.78h-.276a26.8 26.8 0 0 0 .823-2.907h0zm-322.182.046l.903.746.85.704c-.275.462-.535.932-.778 1.412h-.08c-.354-.221-.713-.43-1.071-.61-.164-.082-.333-.153-.498-.232l.674-2.02zm252.011.024l.892.39-.877.091c0-.161-.009-.321-.015-.481h0zm-104.332.009l.535.68c-.047.048-.098.092-.143.141-.171-.184-.355-.356-.536-.53l.133-.27.011-.022zm64.082.033l3.83 1.677a20.06 20.06 0 0 0-.831 1.117h-4.397a17.02 17.02 0 0 0-.616-.774c.788-.559 1.497-1.232 2.014-2.02zm-67.13.047l.105.212a13.03 13.03 0 0 0-.354.351l.249-.563zm-70.648.136l.116.191c-.291.671-.38 1.451-.335 2.171.008.091 0 .169 0 .249h-.651l.87-2.611zm237.886.031l.861 2.581h-.226l-.879-1.78.244-.801h0zm-86.906.251c0 .389.05.779.11 1.169-.14.107-.276.219-.411.331l-.823-.36c.383-.371.753-.756 1.124-1.139h0zm19.211.042l1.455 1.113c-1.015.267-2.017.579-3 .94.01-.082.013-.166.013-.244 0-.25-.016-.737-.022-1.128l1.554-.68zm-174.475.082c-.413.68-.667 1.427-.848 2.207h-2.784l.241-.723 3.391-1.484zm130.096.08l1.05 2.127h-2.101l1.051-2.127zm-108.847.033l1.621.71c0 .146 0 .291.008.434.027.437-.051.735-.193.95h-.358l-1.348-1.71a5.82 5.82 0 0 0 .27-.384h0zm191.368.064c.176.686.389 1.362.629 2.03h-.265a19.32 19.32 0 0 0-1.024-1.36l.66-.669h0zm-232.861.107l.254.854-.118.503-.624-.476.488-.881zm192.873.444a12.07 12.07 0 0 1-.363 1.48h-.588l-.475-.856 1.074-.47.352-.154zm10.377.097l-.696 1.257-.069.125h-.269c.093-.342.169-.685.227-1.03l.111-.049.696-.304zm-262.085.024l2.449 1.072.096.287h-4.187l.718-.594.925-.765zm196.266.039l.27 1.32h-.461l-1.029-.785 1.22-.534zm144.378.038c.009.064.009.126.015.189.052.369.128.733.223 1.091h-.667l.429-1.28zm-200.071.124l.233.169.248.987h-.644c.078-.385.137-.771.163-1.157h0zm159.946.024l-.247 1.132h-.311l.558-1.132zm-35.162.031h.002l2.513 1.1h-2.567a1.1 1.1 0 0 0 .052-.492c-.024-.208-.018-.409 0-.608h0zm-96.463.143l.707.958h-1.237l.53-.958zm3.87 0l.707.958h-1.237l.53-.958zm-39.271.122l1.008.834h-1.525l.04-.197.477-.635V31.2zm72.694.18l-.087.654h-.276l.363-.654zm-82.002.069l1.335.585h-1.507c-.106-.036-.21-.075-.314-.114.163-.157.331-.306.486-.47h0zm180.578 0l.163.119v-.059l.381.525h-.613l.069-.585zm-205.81.021c.12.19.249.375.371.564h-1.111c.255-.176.502-.365.74-.564zm5.119.11l.518.227.521.227h-1.29l.251-.454zm8.268.027l.102.428h-.162c-.079-.049-.157-.103-.237-.15l.297-.277h0zm126.712.047l.079.381h-.54l.461-.381zm-45.174.106l.295.274h-.922l.627-.274zm-145.801.018l.19.257h-.332l.143-.257zm3.872 0l.19.257h-.332l.143-.257zm174.289.002l.188.255h-.329l.141-.255zm63.722 0l.141.255h-.329l.188-.255zm-119.664.11l-.094.147h-.588c.215-.061.449-.122.682-.147h0z" fill="#101d19"/></svg>