<svg xmlns="http://www.w3.org/2000/svg" width="1124" height="69" fill="none"><g clip-path="url(#A)"><path d="M97.259 1.621c.004.006.007.015.011.021l-.003-.021h-.008zm.011.021l3.32 27.113-.188-.129.221.398.472 3.855-.196.774h-1.502l-2.339-1.787 1.406-2.54c-.955.006-1.936.071-2.833.425-.234.092-.431.218-.614.357l-.472-.599 2.798-8.391c-1.073.001-2.216.186-3.071.886-1.515 1.24-1.589 3.249-1.577 5.156l-1.469-1.863c.043.339.214.643.347.953l1.124 2.376v.053c-.008.311-.064.553-.152.754l-.038.003-1.87.197-.68-2.07c-.572-1.458-1.286-2.903-2.295-4.106l3.72-11.159c-.585.585-1.099 1.237-1.569 1.917-2.043 2.954-3.313 6.361-4.418 9.759-.761 2.341-1.387 4.726-1.902 7.134-.425.13-.847.27-1.267.417l-.243-.185a64.4 64.4 0 0 0-.58-2.522c-.89-3.524-1.966-7.076-3.789-10.232l.765-2.573a7.6 7.6 0 0 0-1.656 1.161c-.948-1.39-2.087-2.709-3.604-3.482l1.706 5.736c-.076.11-.16.216-.234.328-1.921 2.906-3.083 6.223-4.005 9.577-.806.015-1.622.093-2.386.357a71.74 71.74 0 0 0-2.096-8.037l-.568-1.66c.036-.082.079-.16.114-.243.133-.309.303-.614.346-.953l-.607.77c-.952-2.688-2.079-5.325-3.703-7.673a13.83 13.83 0 0 0-1.571-1.917l3.814 11.441-6.804 8.635c-.329-.227-.677-.428-1.043-.594-.112-.051-.224-.099-.342-.135l.947 1.284-1.176 1.492c-.361-.585-.738-1.16-1.143-1.716a15.03 15.03 0 0 0-2.999-3.083l2.861-23.359c-2.271 4.539-3.68 9.465-4.553 14.451-.355 2.027-.622 4.063-.826 6.104-.146.369-.282.742-.419 1.114a11.06 11.06 0 0 0-1.365-.451c-.563-.561-1.16-1.087-1.795-1.55-3.914-2.849-8.61-4.612-13.396-5.175-.491-.058-.986-.101-1.481-.102l3.402 2.473 12.626 9.179c-.366.196-.717.421-1.055.661-.804-.571-1.685-1.037-2.631-1.321l1.231 2.49c-.588.565-1.122 1.182-1.61 1.837h-4.397a19.95 19.95 0 0 0-.801-1.08l1.866-2.565.306-.367.085-.171 1.348-1.852c-2.314.061-4.471.942-6.315 2.283-.273-.203-.552-.4-.843-.575l.191.346.278.502a14.78 14.78 0 0 0-1.988 1.87l-.262-1.211c-.797-3.428-1.742-7.077-4.216-9.714l1.792 12.535h-.422a14.17 14.17 0 0 0-1.828-1.52l.571-2.807a21.98 21.98 0 0 0-1.587 2.153 15.3 15.3 0 0 0-1.091-.575c-.581-2.746-1.344-5.457-2.341-8.079l.26-.779c-.181 0-.364.015-.547.027a43.07 43.07 0 0 0-1.466-3.277l.42 3.426c-.535.133-1.045.354-1.478.708-1.851 1.515-1.553 4.176-1.574 6.394-.014 0-.027-.002-.041-.002l.041.033v.247c-.035 1.514-1.171 1.541-2.043 1.926-.777-.271-1.565-.51-2.359-.726l-.224-1.016.563-.465c-.224.002-.447.012-.671.024-.433-1.811-.93-3.606-1.505-5.376-1.104-3.398-2.375-6.805-4.418-9.759-.47-.68-.985-1.331-1.569-1.917l5.747 17.238a16.15 16.15 0 0 0-1.844.415 51.27 51.27 0 0 0-4.023-.516c-.131-.012-.263-.018-.393-.027-.554-1.172-1.205-2.296-1.947-3.36l.851-1.536c-.63.003-1.269.038-1.889.158-.043-.052-.081-.107-.124-.158l.036.176c-.2.042-.398.092-.593.155-.028.009-.054.024-.082.035l-3.327-4.22c.043.339.214.643.346.953.574 1.339 1.237 2.632 1.949 3.899-.59.556-.943 1.336-.937 2.167.008.903.416 2.44-1.03 2.363-.401-.021-.88.018-1.257.186v6.767.934 1.736 30.957h379.854V53.965v-1.465-7.673-12.51c-.65-1.366-1.507-2.632-2.664-3.589l2.664-1.937v-4.326a27.67 27.67 0 0 0-6.442 3.468c-1.178.858-2.251 1.899-3.137 3.073l-.093-2.139 1.323-1.011c-.456.177-.902.378-1.351.572-.199-3.467-.547-6.924-1.147-10.355-.873-4.987-2.281-9.912-4.552-14.451l2.714 22.157-.031.149c-.91.976-1.612 2.09-2.176 3.279.162-3.427-.021-6.878-.268-10.293l-2.645 12.997-3.636-4.612c.043.339.214.643.347.953.769 1.793 1.692 3.508 2.696 5.178-.844.604-1.67 1.235-2.484 1.878a16.01 16.01 0 0 0-.022-1.486c-.037-.531-.119-1.144-.552-1.512-.126-.108-.274-.144-.426-.155.289 1.131.491 2.284.633 3.446-.024.018-.045.036-.068.055h-.723c-.16-1.123-.347-2.241-.555-3.355.229-.097.477-.164.713-.147-.224-.877-.494-1.742-.826-2.589-.269-.684-.582-1.358-.928-2.014a70.86 70.86 0 0 0-.945-3.357l3.298-9.894c-.585.585-1.101 1.237-1.571 1.917-1.09 1.576-1.954 3.282-2.696 5.045-.964-2.743-2.104-5.436-3.76-7.83-.47-.68-.984-1.331-1.569-1.917l4.222 12.662-.615 1.799c-1.028 3.163-1.817 6.403-2.403 9.679h-.563c-.239-1.384-.529-2.758-.857-4.123.334-1.95.45-3.936.302-5.91l-1.213 2.457c-.758-2.599-1.696-5.153-3.046-7.49l.766-2.575c-.608.31-1.157.707-1.657 1.161-.948-1.389-2.087-2.707-3.604-3.481l1.706 5.733c-.077.111-.16.218-.234.329-2.186 3.307-3.401 7.142-4.382 10.963l-3.488-7.059-.616-2.006c-.18-.555-.376-1.106-.568-1.66.037-.082.08-.16.115-.243.132-.309.303-.614.346-.953l-.606.77c-.953-2.688-2.081-5.325-3.705-7.673a13.78 13.78 0 0 0-1.569-1.917l3.814 11.441-3.449 4.377c-.094-.552-.252-1.095-.516-1.617l-.436.787c-.885-4.373-2.214-8.67-4.214-12.666l2.034 16.603-1.615 2.917-.223.284c-.361-.586-.737-1.162-1.142-1.718-.841-1.154-1.855-2.209-3-3.084L319 3.942c-2.271 4.539-3.679 9.465-4.552 14.451-.355 2.029-.623 4.066-.827 6.109-.146.367-.281.739-.417 1.11-.446-.18-.903-.331-1.369-.451-.562-.561-1.157-1.088-1.792-1.55-3.914-2.849-8.611-4.612-13.398-5.175-.491-.058-.986-.101-1.481-.102l3.403 2.475 12.625 9.178a10.1 10.1 0 0 0-1.279.816c-1.075.805-1.989 1.781-2.786 2.851h-2.8l-1.014-2.282c-.279.139-.627.273-.945.251a32.31 32.31 0 0 0 1.733-1.981l.156-.315-1.425 1.088.804-1.089c-.118.036-.23.084-.342.135-.443.201-.856.458-1.246.746-.311-1.595-.475-3.22-.546-4.847v.108c-.049 1.495-.215 2.992-.113 4.488.016.228.044.468.101.701-.233.207-.444.437-.654.668-.465-.478-.96-.929-1.494-1.337-.31-.237-.631-.458-.966-.66l.192.345 1.467 2.652c-.066.094-.142.183-.205.279-.041.063-.075.131-.115.194l-1.124.859h-2.185a22.96 22.96 0 0 0-2.222-3.551l-3.562-17.514c-.4 5.545-.645 11.187.51 16.664.012.058.027.113.041.171-3.378-2.712-6.994-5.165-10.931-6.977-.018-.889-.191-1.765-.609-2.592l-1.046 1.889c-.168-.068-.331-.146-.5-.212l.434.331-2.759 4.981-.76 1.373c-3.34-2.538-6.919-4.767-10.799-6.369l.414-.315c-.196.076-.385.167-.58.246-.195-.079-.383-.17-.579-.246l.414.315c-2.43 1.004-4.743 2.251-6.951 3.671l-3.137-5.662c-1.159 2.295-.504 4.969.467 7.223.027.064.069.125.099.188-1.083.783-2.141 1.6-3.176 2.442a16.19 16.19 0 0 0-.764.189l-.302-1.273-.111 1.396-.43.132a21.17 21.17 0 0 0-.647-.827l.2.987c-.706.259-1.392.567-2.052.925l-.735-1.329c.275-.317.546-.64.809-.968l.155-.315-1.177.9-.499-.9a5.76 5.76 0 0 0-.37.959c-.069-.085-.132-.174-.202-.259l.119.588a5.56 5.56 0 0 0-.08.4l-1.569 1.199.445-2.186a22.03 22.03 0 0 0-1.745 2.406l-.072-.031-.963-.421-.516-2.174-4.715-19.871c-.509 5.571-.61 11.337 1.056 16.722.395 1.277.913 2.572 1.62 3.735-.143.099-.293.189-.431.295-.164.125-.317.261-.474.393a38.11 38.11 0 0 0-3.305-.831c-.058-.03-.114-.062-.174-.09a2.81 2.81 0 0 0-.341-.135l.102.138c-.237-.046-.474-.085-.711-.127l-.012-.009v.009l-.757-.135a4.46 4.46 0 0 0 .089-.574l-1.003.439c-.939-.133-1.88-.246-2.82-.329-.694-.061-1.389-.108-2.086-.11l.156.067 2.798 1.226-2.03.889a10.85 10.85 0 0 0-.53-.366c-.285-.606-.739-1.116-1.436-1.39-.897-.353-1.876-.42-2.831-.426l1.449 2.616c-.176-.148-.347-.301-.532-.439-.479-.359-.991-.675-1.527-.942a26.81 26.81 0 0 0-.589-1.967l5.281-10.691c-1.31.393-2.5 1.124-3.527 2.02-1.462 1.276-2.618 2.843-3.549 4.54-.931-1.697-2.087-3.265-3.548-4.54-1.027-.896-2.217-1.627-3.527-2.02l5.28 10.69a24.18 24.18 0 0 0-.265.828c-.457.063-.907.163-1.337.332-1.493.588-1.906 2.238-1.817 3.652.027.437-.051.735-.193.95h-4.779a43.45 43.45 0 0 0-.216-2.417l5.965-2.611c-.697.002-1.391.049-2.085.11a51.22 51.22 0 0 0-4.161.539l-.241-1.346c-.823-3.904-2.488-7.656-5.062-10.726l2.569 12.63c-1.145.276-2.277.605-3.388.992l-2.629-2.009 2.363-11.613c-2.575 3.07-4.239 6.822-5.062 10.726-.399 1.892-.622 3.804-.739 5.725h-1.417l3.347-16.451c-2.575 3.07-4.239 6.822-5.062 10.726a36.46 36.46 0 0 0-.502 3.139 22.04 22.04 0 0 0-1.765-2.442l.676 3.322c-.893.064-2.008.193-1.943-1.053.044-.835-.163-2.017-1.292-1.889-2.276.26-3.982-2.233-6.082-3.138-1.602-.69-3.415-1.207-5.155-1.041 0-1.54-.175-3.077-.616-4.598l-4.197 12.585c-.46-.604-.963-1.172-1.51-1.697l1.231-2.492c-.945.284-1.826.75-2.629 1.321-.464-.329-.955-.619-1.469-.862l.227-.459c-.235.071-.466.156-.694.247-.228-.091-.459-.177-.695-.247l.228.459c-.244.115-.482.24-.715.376l-.61-.411.412.524c-.19.117-.374.243-.556.373-.271-.192-.551-.37-.839-.534l2.037-4.579c-.318.173-.59.418-.85.664-.998.946-1.734 2.119-2.331 3.359a8.31 8.31 0 0 0-.646-.231l.39.79c-.137.31-.277.619-.4.932-.332.847-.603 1.712-.827 2.589.141-.009.285.009.431.052-.162.219-.323.438-.475.664h-.121l.165-.716c-.124.009-.242.037-.35.106l-2.717-13.346c-.217 3.006-.379 6.04-.306 9.062-.556.251-1.063.576-1.53.954l-2.019-14.125c-.238 4.557-.431 9.158-.356 13.741l-.053-.044c-.31-.237-.633-.459-.967-.66l1.039 1.876c.016.588.052 1.174.078 1.762l-.664.508-3.562-10.684c-.526 1.817-.681 3.656-.598 5.495-.458-.659-.97-1.28-1.534-1.854 1.312-2.063 2.498-4.195 3.461-6.441.133-.309.304-.614.347-.953l-4.983 6.322c-.239-.198-.477-.4-.727-.581-3.914-2.849-8.61-4.612-13.396-5.175-.492-.058-.986-.101-1.482-.102l.156.113 12.7 9.234-.662.84.072-.359c-.225.269-.436.548-.647.828a16.15 16.15 0 0 0-4.925-.828l.966.799-.241-.099.389.298c-.774.405-1.452.967-2.051 1.608-.491-.191-.985-.37-1.485-.538.975-1.618 1.586-3.436 1.637-5.358l-4.634 3.369a15.79 15.79 0 0 0-.55.064c-.106-1.352-.444-2.633-1.524-3.517-.855-.699-1.998-.885-3.071-.885l1.589 4.769c-1.108-.169-2.221-.304-3.331-.401-.694-.061-1.389-.108-2.085-.11l1.713.751-1.114.851-.499-.901a5.73 5.73 0 0 0-.509 1.553c-.451-.619-.961-1.189-1.557-1.672l.531-1.594 1.701-5.101c-1.073.001-2.216.185-3.071.884-1.927 1.577-1.52 4.409-1.574 6.676-.027 1.163-.705 1.446-1.412 1.689a33.08 33.08 0 0 0-1.849-.63c-.205-.329-.421-.652-.642-.97l.851-1.536c-.629.003-1.265.044-1.885.165-.044-.054-.083-.111-.128-.165l.036.18a5.28 5.28 0 0 0-.854.244c-.585.23-.999.628-1.288 1.106-.479-.094-.96-.181-1.442-.259a4.46 4.46 0 0 0 .089-.574l-1.003.439c-.635-.09-1.271-.167-1.908-.234l12.21-8.877c-.496.002-.989.044-1.48.102-4.787.563-9.484 2.326-13.398 5.175-.049.036-.094.078-.143.114l-.225-.285a1.73 1.73 0 0 0 .108.379c-1.075.818-2.058 1.781-2.877 2.866-.154-4.333-.519-8.653-1.268-12.934-.872-4.978-2.276-9.896-4.54-14.429v.001zm204.233 23.717c.021-.882-.04-3.137-.045-2.343a43.66 43.66 0 0 0 .045 2.343zm-37.465-3.384l6.153 4.702 3.98 3.04-.068.124a50.58 50.58 0 0 0-2.275-.291 5.62 5.62 0 0 0-.358-.923l-.464.837-.263-.027c-.623-.055-1.248-.094-1.873-.103l.015-.006c-.038 0-.076.003-.113.003s-.075-.003-.113-.003l.015.006a25.68 25.68 0 0 0-1.875.103c-1.132.099-2.265.235-3.394.409l-.81-.386v-.002c-.38-.173-.762-.339-1.148-.5l.246-.334c-.118.036-.232.087-.343.138-.059.027-.114.058-.171.086l-.539-.223.39.298c-.579.303-1.113.686-1.594 1.13l-1.775-3.203 6.377-4.875zm-199.734.563L65 24.627a6.42 6.42 0 0 0-.472.406c-1.393 1.321-2.291 3.079-2.986 4.852-.059.149-.105.303-.16.453a7.39 7.39 0 0 0-.679-.47l.299-.541c-.194.117-.374.253-.56.382-.155-.086-.312-.169-.474-.243 1.583-2.231 3.069-4.522 4.335-6.929h0zm264.769 0l.696 2.089c-.164.128-.321.263-.472.406a9.11 9.11 0 0 0-.654.701l-.631-1.277c.37-.63.721-1.272 1.061-1.918h0zm-48.856.622l3.491 2.667 4.789 3.658c-.18.219-.352.443-.523.669-1.585-.528-3.256-.81-4.925-.827l.659.544 2.864 2.37a23.69 23.69 0 0 0-.779 1.414h-.08c-.354-.221-.713-.43-1.071-.61-2.114-1.064-4.349-1.849-6.64-2.424l-.775-.65c.691-.944 1.5-1.871 1.939-2.89.528-1.225.95-2.574 1.051-3.92h0zm-204.122.538l2.747 9.239c-.077.038-.157.069-.234.108-.358.18-.716.388-1.071.61H74.37l.138-.465c-.268.137-.52.297-.767.465h-.155l-.288-.553 2.797-9.404zm264.767 0l.703 2.362-3.529 7.145 2.826-9.507zm-253.593.932l2.29 5.155a45.37 45.37 0 0 0-2.279.383l.23-.691c-.251.251-.483.52-.71.793-.51.107-1.02.218-1.525.345l1.994-5.984zm242.613.332l1.598 4.793-.45.812-1.916-3.879.768-1.726zm-264.769.002l1.853 5.554a2.84 2.84 0 0 0-.248.337l-1.891-1.443.047-.085c-.029.018-.055.039-.083.056l-.074-.056.039.08c-.291.181-.577.372-.85.58-.533.408-1.029.857-1.494 1.335-.028-.031-.058-.062-.086-.093l2.786-6.266zm262.427.268c0 .648.024 1.296.074 1.942-.518.86-.941 1.783-1.305 2.711-.332.847-.602 1.712-.826 2.589a1.41 1.41 0 0 1 .569.09l-.527.951-.083-.892c.012-.05.028-.099.041-.149-.018.002-.037-.002-.055 0a85.08 85.08 0 0 0-.405-3.255l.063-.247a70.24 70.24 0 0 0 2.454-3.739h0zm24.278.064l2.785 8.358h-1.324l-1.875-1.552.876-2.627c-.585.585-1.101 1.237-1.571 1.917-.504.729-.96 1.484-1.379 2.261h-.3l2.788-8.358zm-330.034.294l.527 4.296a16.22 16.22 0 0 0-1.831-.381l1.304-3.915zm155.927.921l3.979 2.202c-.148.092-.289.195-.433.294a6.26 6.26 0 0 0-.486-.248 2.82 2.82 0 0 0-.341-.136l.465.631c-.015.012-.03.018-.044.031-.534.409-1.028.858-1.494 1.337-.58-.639-1.237-1.207-1.988-1.624.149-.827.274-1.656.342-2.487v-.001zM2.431 28.224l1.152 1.743.524 2.573c-.643-1.103-1.455-2.093-2.488-2.849l.812-1.467zm252.807.476c.651.883 1.375 1.741 1.801 2.657-1.416.468-2.804 1.017-4.14 1.689-.358.18-.716.389-1.071.61h-.079a23.67 23.67 0 0 0-.778-1.412l.223-.185 3.298-2.73-.082.002.653-.498.175-.132zm-73.487.05l.591.328 1.582.875a14.67 14.67 0 0 0-.696.672c-.507-.558-1.071-1.062-1.709-1.456l.232-.418zm18.622.255c.59.736 1.222 1.433 1.873 2.114-.856.324-1.699.683-2.524 1.086l.651-3.2zm-41.017.066c0 .091.008.182.008.273l-.481.367.473-.639zm101.954.069l1.138.87a42.15 42.15 0 0 0-2.091.422l.953-1.291zm112.833.041l.577 2.428c-.63-.126-1.279-.16-1.92-.163l1.223 2.208h-6.005l.019-.035 6.106-4.438zm-227.358.074l.812.591a22.41 22.41 0 0 0-.643.934c-.298-.174-.604-.335-.914-.489l.745-1.036h0zm195.733.009h.001l.032.108-.041-.074c0-.012.009-.024.009-.035h-.001zm-73.747.111l1.839.804-.797 1.437a46.67 46.67 0 0 0-2.347.437 47.91 47.91 0 0 0-2.075-1.199l.091-.041 1.006-.44 2.283-.998zm-142.32.015l1.656.726.202.088a15.03 15.03 0 0 0-2.271 1.346l-.521-.939a28.85 28.85 0 0 0 .809-.97l.125-.251zm-61.659.085l.083.166c.499.625 1.023 1.225 1.566 1.81-.222.62-.294 1.309-.254 1.953.008.091 0 .169 0 .249h-2.179c-.176-.36-.365-.714-.586-1.052-.063-.096-.139-.186-.205-.281l1.576-2.846zm223.786.069l2.399 1.834c-.021.034-.047.067-.069.102-.791-.462-1.624-.85-2.486-1.166l.156-.77zm-111.317.03l1.367 1.852c-.594.699-1.131 1.45-1.626 2.227h-.767a45.85 45.85 0 0 0 1.026-4.079h0zm-117.413.067l.234.315c-.015.012-.029.018-.044.031-.424.324-.818.681-1.198 1.05l1.008-1.396h0zm121.377.059l1.118 1.515.155.212a19.87 19.87 0 0 0-1.387 1.859 9.77 9.77 0 0 0-.745-1.384c-.063-.096-.139-.184-.205-.279l1.064-1.923zm-40.73.139l.716.547.198.152 1.188.983-1.03 1.307c-.291-.174-.585-.339-.876-.486-.501-.252-1.009-.485-1.523-.707l1.327-1.796zm18.887.024c.057 1.268.168 2.531.334 3.79h-.473a21.57 21.57 0 0 0-1.08-1.547l-.116-.809c.454-.47.907-.94 1.335-1.434h0zm79.427.105a10.21 10.21 0 0 0 .77 1.034c-.373-.137-.75-.262-1.129-.386l.359-.649zm-70.687.063l.211.425-.308-.226.097-.199zm-97.772.177l-.254.933-.05.213c-.079-.055-.158-.114-.24-.166l.544-.98zm37.589.018l.348.641-1.799.787c-.031-.101-.064-.202-.102-.299l1.553-1.128zm-106.62.009l.812 3.421H-.576l1.035-1.87.859-1.552zm146.884.053l1.37.997-.536.969a14.19 14.19 0 0 0-1.068-.817l.234-1.149zm-142.093.012l1.184.52.201.088a15.01 15.01 0 0 0-.647.329l-.737-.937zm178.605.091l4.913 2.721.585.545h-4.593v-.003c-.164-.107-.347-.139-.535-.146.021.049.037.099.057.149h-.982c.292-.082.616-.16.925-.149-.232-.557-.512-1.095-.845-1.603-.062-.096-.139-.184-.205-.279l.68-1.235zm-124.306.012l.646.875a22.93 22.93 0 0 0-.34 1.199c.199-.015.408.024.607.1-.279.351-.546.71-.801 1.08h-.072c.081-.395.167-.789.267-1.18-.152.012-.3.048-.426.155-.185.157-.296.365-.376.586-.115-.207-.232-.414-.362-.613-.063-.096-.139-.184-.205-.279l1.064-1.923zm61.933.002l.194.821.224.945-.224.171-.82.627c-.065-.032-.133-.06-.199-.092l.825-2.471zm205.796.343a27.03 27.03 0 0 0 .823 2.907h-1.779a31.55 31.55 0 0 0 .956-2.907zm14.095 0a31.55 31.55 0 0 0 .333 1.127l-.88 1.78h-.275a27.03 27.03 0 0 0 .823-2.907h-.001zm-322.182.045l.903.746.85.704c-.275.462-.535.932-.778 1.412h-.08c-.354-.221-.713-.43-1.071-.61-.164-.082-.333-.153-.498-.232l.674-2.02zm252.011.024l.892.39-.876.091c0-.161-.009-.321-.015-.481h-.001zm-104.331.009l.534.68c-.046.048-.097.092-.143.141-.171-.184-.355-.356-.536-.53l.134-.27.011-.022zm64.082.033l3.83 1.677a19.57 19.57 0 0 0-.831 1.117h-4.398c-.197-.265-.403-.523-.616-.774.789-.559 1.498-1.232 2.015-2.02zm-67.13.047l.105.212a13.03 13.03 0 0 0-.354.351l.249-.563zm-70.648.136l.116.191c-.291.671-.381 1.451-.335 2.171.008.091 0 .169 0 .249h-.651l.87-2.611zm237.886.031l.861 2.581h-.226l-.88-1.78.245-.801h0zm-86.907.251c0 .389.05.779.11 1.169-.139.107-.275.219-.41.331l-.823-.36c.383-.371.753-.756 1.124-1.139h-.001zm19.211.042l1.455 1.113c-1.015.267-2.016.579-2.999.94a2.27 2.27 0 0 0 .012-.244c0-.25-.015-.737-.021-1.128l1.553-.68zm-174.474.082c-.412.68-.668 1.427-.848 2.207h-2.784l.241-.723 3.391-1.484zm130.095.08l1.051 2.127h-2.101l1.05-2.127zm-108.847.033l1.621.71c0 .146 0 .291.008.434.028.437-.05.735-.192.95h-.358l-1.348-1.71c.096-.124.184-.253.269-.384h0zm191.369.064c.175.686.388 1.362.629 2.03h-.265a19.32 19.32 0 0 0-1.024-1.36l.66-.669h0zm-232.861.107l.254.854-.118.503-.624-.476.488-.881zm192.873.444a12.07 12.07 0 0 1-.364 1.479h-.588l-.475-.856 1.074-.47.353-.154zm10.377.097l-.696 1.257-.069.125h-.27c.094-.342.169-.685.227-1.03l.112-.049.696-.304zM10.671 32.3l2.449 1.072.096.287H9.028l.718-.594.925-.765zm196.266.039l.269 1.32h-.461l-1.028-.785 1.22-.534zm144.377.038c.009.064.009.126.015.189.053.369.129.733.223 1.091h-.666l.428-1.28zm-200.071.124l.234.169.248.987h-.645c.079-.385.137-.771.163-1.157h0zm159.947.024l-.248 1.131h-.31l.558-1.131zm-35.162.031h.001l2.513 1.1h-2.566c.046-.143.075-.299.052-.492-.024-.208-.018-.409 0-.608h0zm-96.464.143l.707.958h-1.237l.53-.958zm3.871 0l.707.958h-1.237l.53-.958zm-39.271.122l1.008.834h-1.526l.041-.197.477-.635v-.002zm72.693.18l-.086.654h-.276l.362-.654zm-82.001.069l1.334.585h-1.506c-.106-.036-.21-.075-.314-.114.162-.157.331-.306.486-.47h0zm180.578 0l.163.119c-.001-.021 0-.039 0-.059l.381.525h-.613l.069-.585zm-205.81.021c.12.19.249.375.371.564h-1.111c.255-.176.502-.365.74-.564zm5.118.11l.519.227.521.227h-1.291l.251-.454zm8.268.027l.102.428h-.161c-.08-.05-.157-.103-.237-.151l.296-.277h0zm126.713.047l.078.381h-.539l.461-.381zm-45.174.106l.295.274h-.922l.627-.274zM58.748 33.4l.19.257h-.332l.143-.257zm3.872 0l.19.257h-.332l.143-.257zm174.29.002l.188.255h-.329l.141-.255zm63.721 0l.142.255h-.33l.188-.255zm-119.664.11l-.094.147h-.588c.216-.061.45-.122.682-.147h0z" fill="#101d19"/></g><g clip-path="url(#B)"><path d="M471.259 1.621c.004.006.007.015.011.021l-.003-.021h-.008zm.011.021l3.32 27.113-.188-.129.221.398.472 3.855-.196.774h-1.502l-2.339-1.787 1.407-2.54c-.955.006-1.936.071-2.833.425-.234.092-.432.218-.615.357l-.472-.599 2.799-8.391c-1.074.001-2.217.186-3.072.886-1.515 1.24-1.589 3.249-1.577 5.156l-1.469-1.863c.044.339.214.643.347.953l1.124 2.376v.053c-.008.311-.064.553-.152.754l-.038.003-1.87.197-.68-2.07c-.572-1.458-1.286-2.903-2.296-4.106l3.721-11.159c-.585.585-1.099 1.237-1.57 1.917-2.043 2.954-3.313 6.361-4.418 9.759a71.29 71.29 0 0 0-1.901 7.134 34.41 34.41 0 0 0-1.267.417l-.243-.185c-.177-.844-.369-1.685-.58-2.522-.89-3.524-1.966-7.076-3.789-10.232l.765-2.573c-.608.31-1.155.707-1.656 1.161-.947-1.39-2.087-2.709-3.604-3.482l1.706 5.736c-.076.11-.16.216-.234.328-1.921 2.906-3.083 6.223-4.005 9.577-.807.015-1.622.093-2.386.357-.547-2.717-1.24-5.403-2.096-8.037-.181-.555-.376-1.107-.568-1.66.036-.082.08-.16.115-.243.132-.309.303-.614.346-.953l-.607.77c-.952-2.688-2.079-5.325-3.703-7.673-.47-.68-.986-1.331-1.57-1.917l3.814 11.441-6.804 8.635c-.33-.227-.677-.428-1.043-.594-.111-.051-.224-.099-.341-.135l.946 1.284-1.175 1.492c-.361-.585-.738-1.16-1.143-1.716a15.05 15.05 0 0 0-2.999-3.083l2.861-23.359c-2.271 4.539-3.68 9.465-4.553 14.451-.355 2.027-.622 4.063-.826 6.104-.147.369-.282.742-.419 1.114-.444-.18-.9-.331-1.365-.451-.563-.561-1.159-1.087-1.795-1.55-3.914-2.849-8.61-4.612-13.396-5.175-.492-.058-.986-.101-1.482-.102l3.402 2.473 12.627 9.179c-.366.196-.717.421-1.055.661-.804-.571-1.686-1.037-2.631-1.321l1.231 2.49a14.72 14.72 0 0 0-1.61 1.837h-4.398a19.74 19.74 0 0 0-.801-1.08l1.866-2.565.305-.367.085-.171 1.348-1.852c-2.314.061-4.471.942-6.315 2.283a10.34 10.34 0 0 0-.843-.575l.191.346.278.502a14.7 14.7 0 0 0-1.988 1.87l-.262-1.211c-.797-3.428-1.742-7.077-4.216-9.714l1.792 12.535h-.421a14.19 14.19 0 0 0-1.828-1.52l.57-2.807a21.96 21.96 0 0 0-1.586 2.153c-.355-.207-.72-.397-1.091-.575-.581-2.746-1.345-5.457-2.341-8.079l.26-.779c-.18 0-.364.015-.547.027a42.68 42.68 0 0 0-1.466-3.277l.42 3.426c-.535.133-1.044.354-1.478.708-1.851 1.515-1.553 4.176-1.574 6.394-.014 0-.027-.002-.041-.002l.041.033v.247c-.035 1.514-1.171 1.541-2.043 1.926-.776-.271-1.564-.51-2.359-.726l-.224-1.016.563-.465a15.29 15.29 0 0 0-.671.024c-.434-1.811-.93-3.606-1.505-5.376-1.105-3.398-2.375-6.805-4.418-9.759-.471-.68-.985-1.331-1.57-1.917l5.748 17.238a16.16 16.16 0 0 0-1.844.415 51.27 51.27 0 0 0-4.023-.516c-.131-.012-.262-.018-.393-.027a23.33 23.33 0 0 0-1.947-3.36l.851-1.536c-.63.003-1.269.038-1.889.158-.043-.052-.081-.107-.124-.158l.036.176a5.73 5.73 0 0 0-.593.155c-.028.009-.053.024-.081.035l-3.327-4.22c.044.339.214.643.347.953.574 1.339 1.236 2.632 1.948 3.899-.589.556-.943 1.336-.937 2.167.008.903.416 2.44-1.03 2.363-.401-.021-.88.018-1.257.186v6.767.934 1.736 30.957h379.854V53.965v-1.465-7.673-12.51c-.65-1.366-1.507-2.632-2.664-3.589l2.664-1.937v-4.326a27.67 27.67 0 0 0-6.442 3.468c-1.178.858-2.251 1.899-3.137 3.073l-.093-2.139 1.323-1.011c-.456.177-.902.378-1.351.572-.199-3.467-.547-6.924-1.147-10.355-.873-4.987-2.281-9.912-4.552-14.451l2.714 22.157-.031.149c-.91.976-1.612 2.09-2.176 3.279.162-3.427-.021-6.878-.268-10.293l-2.645 12.997-3.636-4.612c.043.339.214.643.347.953.769 1.793 1.692 3.508 2.696 5.178-.844.604-1.67 1.235-2.484 1.878a16.01 16.01 0 0 0-.022-1.486c-.037-.531-.119-1.144-.552-1.512-.126-.108-.274-.144-.426-.155.289 1.131.491 2.284.633 3.446-.024.018-.045.036-.068.055h-.723c-.16-1.123-.347-2.241-.555-3.355.229-.097.477-.164.713-.147-.224-.877-.494-1.742-.826-2.589-.269-.684-.582-1.358-.928-2.014a70.86 70.86 0 0 0-.945-3.357l3.298-9.894c-.585.585-1.101 1.237-1.571 1.917-1.09 1.576-1.954 3.282-2.696 5.045-.964-2.743-2.104-5.436-3.76-7.83-.47-.68-.984-1.331-1.569-1.917l4.222 12.662-.615 1.799c-1.028 3.163-1.817 6.403-2.403 9.679h-.563c-.239-1.384-.529-2.758-.857-4.123.334-1.95.45-3.936.302-5.91l-1.213 2.457c-.758-2.599-1.696-5.153-3.046-7.49l.766-2.575c-.608.31-1.157.707-1.657 1.161-.948-1.389-2.087-2.707-3.604-3.481l1.706 5.733c-.077.111-.16.218-.234.329-2.186 3.307-3.401 7.142-4.382 10.963l-3.488-7.059-.616-2.006c-.18-.555-.376-1.106-.568-1.66.037-.082.08-.16.115-.243.132-.309.303-.614.346-.953l-.606.77c-.953-2.688-2.081-5.325-3.705-7.673a13.78 13.78 0 0 0-1.569-1.917l3.814 11.441-3.449 4.377c-.094-.552-.252-1.095-.516-1.617l-.436.787c-.885-4.373-2.214-8.67-4.214-12.666l2.034 16.603-1.615 2.917-.223.284c-.361-.586-.737-1.162-1.142-1.718-.841-1.154-1.855-2.209-3-3.084L693 3.942c-2.271 4.539-3.679 9.465-4.552 14.451-.355 2.029-.623 4.066-.827 6.109-.146.367-.281.739-.417 1.11-.446-.18-.903-.331-1.369-.451-.562-.561-1.157-1.088-1.792-1.55-3.914-2.849-8.611-4.612-13.398-5.175-.491-.058-.986-.101-1.481-.102l3.403 2.475 12.625 9.178a10.1 10.1 0 0 0-1.279.816c-1.075.805-1.989 1.781-2.786 2.851h-2.8l-1.014-2.282c-.279.139-.627.273-.945.251a32.31 32.31 0 0 0 1.733-1.981l.156-.315-1.425 1.088.804-1.089c-.118.036-.23.084-.342.135-.443.201-.856.458-1.246.746-.311-1.595-.475-3.22-.546-4.847v.108c-.049 1.495-.215 2.992-.113 4.488.016.228.044.468.101.701-.233.207-.444.437-.654.668-.465-.478-.96-.929-1.494-1.337-.31-.237-.631-.458-.966-.66l.192.345 1.467 2.652c-.066.094-.142.183-.205.279-.041.063-.075.131-.115.194l-1.124.859h-2.185a22.96 22.96 0 0 0-2.222-3.551l-3.562-17.514c-.4 5.545-.645 11.187.51 16.664.012.058.027.113.041.171-3.378-2.712-6.994-5.165-10.931-6.977-.018-.889-.191-1.765-.609-2.592l-1.046 1.889c-.168-.068-.331-.146-.5-.212l.434.331-2.759 4.981-.76 1.373c-3.34-2.538-6.919-4.767-10.799-6.369l.414-.315c-.196.076-.385.167-.58.246-.195-.079-.383-.17-.579-.246l.414.315c-2.43 1.004-4.743 2.251-6.951 3.671l-3.137-5.662c-1.159 2.295-.504 4.969.467 7.223.027.064.069.125.099.188-1.083.783-2.141 1.6-3.176 2.442a16.19 16.19 0 0 0-.764.189l-.302-1.273-.111 1.396-.43.132a21.17 21.17 0 0 0-.647-.827l.2.987c-.706.259-1.392.567-2.052.925l-.735-1.329c.275-.317.546-.64.809-.968l.155-.315-1.177.9-.499-.9a5.76 5.76 0 0 0-.37.959c-.069-.085-.132-.174-.202-.259l.119.588a5.56 5.56 0 0 0-.08.4l-1.569 1.199.445-2.186a22.03 22.03 0 0 0-1.745 2.406l-.072-.031-.963-.421-.516-2.174-4.715-19.871c-.509 5.571-.61 11.337 1.056 16.722.395 1.277.913 2.572 1.62 3.735-.143.099-.293.189-.431.295-.164.125-.317.261-.474.393a38.11 38.11 0 0 0-3.305-.831c-.058-.03-.114-.062-.174-.09a2.81 2.81 0 0 0-.341-.135l.102.138c-.237-.046-.474-.085-.711-.127l-.012-.009v.009l-.757-.135a4.46 4.46 0 0 0 .089-.574l-1.003.439c-.939-.133-1.88-.246-2.82-.329-.694-.061-1.389-.108-2.086-.11l.156.067 2.798 1.226-2.03.889a10.85 10.85 0 0 0-.53-.366c-.285-.606-.739-1.116-1.436-1.39-.897-.353-1.876-.42-2.831-.426l1.449 2.616c-.176-.148-.347-.301-.532-.439-.479-.359-.991-.675-1.527-.942a26.81 26.81 0 0 0-.589-1.967l5.281-10.691c-1.31.393-2.5 1.124-3.527 2.02-1.462 1.276-2.618 2.843-3.549 4.54-.931-1.697-2.087-3.265-3.548-4.54-1.027-.896-2.217-1.627-3.527-2.02l5.28 10.69a24.18 24.18 0 0 0-.265.828c-.457.063-.907.163-1.337.332-1.493.588-1.906 2.238-1.817 3.652.027.437-.051.735-.193.95h-4.779a43.45 43.45 0 0 0-.216-2.417l5.965-2.611c-.697.002-1.391.049-2.085.11a51.22 51.22 0 0 0-4.161.539l-.241-1.346c-.823-3.904-2.488-7.656-5.062-10.726l2.569 12.63c-1.145.276-2.277.605-3.388.992l-2.629-2.009 2.363-11.613c-2.575 3.07-4.239 6.822-5.062 10.726-.399 1.892-.622 3.804-.739 5.725h-1.417l3.347-16.451c-2.575 3.07-4.239 6.822-5.062 10.726a36.46 36.46 0 0 0-.502 3.139 22.04 22.04 0 0 0-1.765-2.442l.676 3.322c-.893.064-2.008.193-1.943-1.053.044-.835-.163-2.017-1.292-1.889-2.276.26-3.982-2.233-6.082-3.138-1.602-.69-3.415-1.207-5.155-1.041 0-1.54-.175-3.077-.616-4.598l-4.197 12.585c-.46-.604-.963-1.172-1.51-1.697l1.231-2.492c-.945.284-1.826.75-2.629 1.321-.464-.329-.955-.619-1.469-.862l.227-.459c-.235.071-.466.156-.694.247-.228-.091-.459-.177-.695-.247l.228.459c-.244.115-.482.24-.715.376l-.61-.411.412.524c-.19.117-.374.243-.556.373-.271-.192-.551-.37-.839-.534l2.037-4.579c-.318.173-.59.418-.85.664-.998.946-1.734 2.119-2.331 3.359a8.31 8.31 0 0 0-.646-.231l.39.79c-.137.31-.277.619-.4.932-.332.847-.603 1.712-.827 2.589.141-.009.285.009.431.052-.162.219-.323.438-.475.664h-.121l.165-.716c-.124.009-.242.037-.35.106l-2.717-13.346c-.217 3.006-.379 6.04-.306 9.062-.556.251-1.063.576-1.53.954l-2.019-14.125c-.238 4.557-.431 9.158-.356 13.741l-.053-.044c-.31-.237-.633-.459-.967-.66l1.039 1.876c.016.588.052 1.174.078 1.762l-.664.508-3.562-10.684c-.526 1.817-.681 3.656-.598 5.495-.458-.659-.97-1.28-1.534-1.854 1.312-2.063 2.498-4.195 3.461-6.441.133-.309.304-.614.347-.953l-4.983 6.322c-.239-.198-.477-.4-.727-.581-3.914-2.849-8.61-4.612-13.396-5.175-.492-.058-.986-.101-1.482-.102l.156.113 12.7 9.234-.662.84.072-.359c-.225.269-.436.548-.647.828a16.15 16.15 0 0 0-4.925-.828l.966.799-.241-.099.389.298c-.774.405-1.452.967-2.051 1.608-.491-.191-.985-.37-1.485-.538.975-1.618 1.586-3.436 1.637-5.358l-4.634 3.369a15.79 15.79 0 0 0-.55.064c-.106-1.352-.444-2.633-1.524-3.517-.855-.699-1.998-.885-3.071-.885l1.589 4.769c-1.108-.169-2.221-.304-3.331-.401-.694-.061-1.389-.108-2.085-.11l1.713.751-1.114.851-.499-.901a5.73 5.73 0 0 0-.509 1.553c-.451-.619-.961-1.189-1.557-1.672l.531-1.594 1.701-5.101c-1.073.001-2.216.185-3.071.884-1.927 1.577-1.52 4.409-1.574 6.676-.027 1.163-.705 1.446-1.412 1.689a33.08 33.08 0 0 0-1.849-.63c-.205-.329-.421-.652-.642-.97l.851-1.536c-.629.003-1.265.044-1.885.165-.044-.054-.083-.111-.128-.165l.036.18a5.28 5.28 0 0 0-.854.244c-.585.23-.999.628-1.288 1.106-.479-.094-.96-.181-1.442-.259a4.46 4.46 0 0 0 .089-.574l-1.003.439c-.635-.09-1.271-.167-1.908-.234l12.21-8.877c-.496.002-.989.044-1.48.102-4.787.563-9.484 2.326-13.398 5.175-.049.036-.094.078-.143.114l-.225-.285a1.73 1.73 0 0 0 .108.379c-1.075.818-2.058 1.781-2.877 2.866-.154-4.333-.519-8.653-1.268-12.934-.872-4.978-2.276-9.896-4.54-14.429v.001zm204.233 23.717c.021-.882-.04-3.137-.045-2.343a43.66 43.66 0 0 0 .045 2.343zm-37.465-3.384l6.153 4.702 3.98 3.04-.068.124a50.58 50.58 0 0 0-2.275-.291 5.62 5.62 0 0 0-.358-.923l-.464.837-.263-.027c-.623-.055-1.248-.094-1.873-.103l.015-.006c-.038 0-.076.003-.113.003s-.075-.003-.113-.003l.015.006a25.68 25.68 0 0 0-1.875.103c-1.132.099-2.265.235-3.394.409l-.81-.386v-.002c-.38-.173-.762-.339-1.148-.5l.246-.334c-.118.036-.232.087-.343.138-.059.027-.114.058-.171.086l-.539-.223.39.298c-.579.303-1.113.686-1.594 1.13l-1.775-3.203 6.377-4.875zm-199.734.563l.696 2.089a6.4 6.4 0 0 0-.472.406c-1.393 1.321-2.291 3.079-2.986 4.852-.059.149-.105.303-.16.453-.217-.17-.445-.325-.679-.47l.299-.541c-.194.117-.374.253-.559.382a6.65 6.65 0 0 0-.474-.243c1.583-2.231 3.069-4.522 4.335-6.929h0zm264.769 0l.696 2.089c-.164.128-.321.263-.472.406a9.11 9.11 0 0 0-.654.701l-.631-1.277c.37-.63.721-1.272 1.061-1.918h0zm-48.856.622l3.491 2.667 4.789 3.658c-.18.219-.352.443-.523.669-1.585-.528-3.256-.81-4.925-.827l.659.544 2.864 2.37a23.69 23.69 0 0 0-.779 1.414h-.08c-.354-.221-.713-.43-1.071-.61-2.114-1.064-4.349-1.849-6.64-2.424l-.775-.65c.691-.944 1.5-1.871 1.939-2.89.528-1.225.95-2.574 1.051-3.92h0zm-204.122.538l2.746 9.239c-.077.038-.157.069-.233.108-.358.18-.716.388-1.071.61h-3.167l.138-.465c-.268.137-.52.297-.766.465h-.156l-.288-.553 2.797-9.404zm264.767 0l.703 2.362-3.529 7.145 2.826-9.507zm-253.593.932l2.291 5.155a45.39 45.39 0 0 0-2.28.383l.231-.691a11.8 11.8 0 0 0-.71.793c-.511.107-1.02.218-1.526.345l1.994-5.984zm242.613.332l1.598 4.793-.45.812-1.916-3.879.768-1.726zm-264.769.002l1.853 5.554c-.089.108-.176.218-.248.337l-1.89-1.443.047-.085c-.029.018-.055.039-.084.056l-.073-.056.039.08c-.291.181-.577.372-.85.58a13.85 13.85 0 0 0-1.494 1.335c-.028-.031-.058-.062-.086-.093l2.786-6.266zm262.427.268c0 .648.024 1.296.074 1.942-.518.86-.941 1.783-1.305 2.711-.332.847-.602 1.712-.826 2.589a1.41 1.41 0 0 1 .569.09l-.527.951-.083-.892c.012-.05.028-.099.041-.149-.018.002-.037-.002-.055 0a85.08 85.08 0 0 0-.405-3.255l.063-.247a70.24 70.24 0 0 0 2.454-3.739h0zm24.278.064l2.785 8.358h-1.324l-1.875-1.552.876-2.627c-.585.585-1.101 1.237-1.571 1.917-.504.729-.96 1.484-1.379 2.261h-.3l2.788-8.358zm-330.034.294l.527 4.296c-.602-.163-1.215-.289-1.831-.381l1.304-3.915zm155.927.921l3.979 2.202c-.148.092-.289.195-.433.294a6.26 6.26 0 0 0-.486-.248 2.82 2.82 0 0 0-.341-.136l.465.631c-.015.012-.03.018-.044.031-.534.409-1.028.858-1.494 1.337-.58-.639-1.237-1.207-1.988-1.624.149-.827.274-1.656.342-2.487v-.001zm-175.28 1.711l1.152 1.743.524 2.573c-.644-1.103-1.455-2.093-2.488-2.849l.812-1.467zm252.807.476c.651.883 1.375 1.741 1.801 2.657-1.416.468-2.804 1.017-4.14 1.689-.358.18-.716.389-1.071.61h-.079a23.67 23.67 0 0 0-.778-1.412l.223-.185 3.298-2.73-.082.002.653-.498.175-.132zm-73.487.05l.591.328 1.582.875a14.67 14.67 0 0 0-.696.672c-.507-.558-1.071-1.062-1.709-1.456l.232-.418zm18.622.255c.59.736 1.222 1.433 1.873 2.114-.856.324-1.699.683-2.524 1.086l.651-3.2zm-41.017.066c0 .091.008.182.008.273l-.481.367.473-.639zm101.954.069l1.138.87a42.15 42.15 0 0 0-2.091.422l.953-1.291zm112.833.041l.577 2.428c-.63-.126-1.279-.16-1.92-.163l1.223 2.208h-6.005l.019-.035 6.106-4.438zm-227.358.074l.812.591a22.41 22.41 0 0 0-.643.934c-.298-.174-.604-.335-.914-.489l.745-1.036h0zm195.733.009h.001l.032.108-.041-.074c0-.012.009-.024.009-.035h-.001zm-73.747.111l1.839.804-.797 1.437a46.67 46.67 0 0 0-2.347.437 47.91 47.91 0 0 0-2.075-1.199l.091-.041 1.006-.44 2.283-.998zm-142.32.015l1.656.726.202.088a15.03 15.03 0 0 0-2.271 1.346l-.521-.939a28.85 28.85 0 0 0 .809-.97l.125-.251zm-61.66.085l.084.166a31.27 31.27 0 0 0 1.566 1.81c-.223.62-.295 1.309-.254 1.953.008.091 0 .169 0 .249h-2.179a9.8 9.8 0 0 0-.587-1.052c-.063-.096-.139-.186-.205-.281l1.575-2.846zm223.786.069l2.399 1.834c-.021.034-.047.067-.069.102-.791-.462-1.624-.85-2.486-1.166l.156-.77zm-111.317.03l1.367 1.852c-.594.699-1.131 1.45-1.626 2.227h-.767a45.85 45.85 0 0 0 1.026-4.079h0zm-117.413.067l.233.315c-.014.012-.029.018-.043.031a13.44 13.44 0 0 0-1.198 1.05l1.008-1.396h0zm121.377.059l1.118 1.515.155.212a19.87 19.87 0 0 0-1.387 1.859 9.77 9.77 0 0 0-.745-1.384c-.063-.096-.139-.184-.205-.279l1.064-1.923zm-40.73.139l.716.547.198.152 1.188.983-1.03 1.307c-.291-.174-.585-.339-.876-.486-.501-.252-1.009-.485-1.523-.707l1.327-1.796zm18.887.024c.057 1.268.168 2.531.334 3.79h-.473a21.57 21.57 0 0 0-1.08-1.547l-.116-.809c.454-.47.907-.94 1.335-1.434h0zm79.427.105a10.21 10.21 0 0 0 .77 1.034c-.373-.137-.75-.262-1.129-.386l.359-.649zm-70.687.063l.211.425-.308-.226.097-.199zm-97.772.177l-.254.933c-.018.071-.033.142-.05.213-.08-.055-.158-.114-.24-.166l.544-.98zm37.589.018l.348.641-1.799.787c-.031-.101-.064-.202-.102-.299l1.553-1.128zm-106.62.009l.812 3.421h-2.706l1.035-1.87.859-1.552zm146.884.053l1.37.997-.536.969a14.19 14.19 0 0 0-1.068-.817l.234-1.149zm-142.093.012l1.183.52.201.088c-.219.105-.434.214-.648.329l-.736-.937zm178.605.091l4.913 2.721.585.545h-4.593v-.003c-.164-.107-.347-.139-.535-.146.021.049.037.099.057.149h-.982c.292-.082.616-.16.925-.149-.232-.557-.512-1.095-.845-1.603-.062-.096-.139-.184-.205-.279l.68-1.235zm-124.306.012l.646.875c-.125.397-.237.796-.34 1.199.199-.015.408.024.607.1-.279.351-.547.71-.802 1.08h-.072a25 25 0 0 1 .267-1.18c-.152.012-.3.048-.427.155-.185.157-.295.365-.376.586a9.44 9.44 0 0 0-.362-.613c-.063-.096-.139-.184-.205-.279l1.064-1.923zm61.933.002l.194.821.224.945-.224.171-.82.627c-.065-.032-.133-.06-.199-.092l.825-2.471zm205.796.343a27.03 27.03 0 0 0 .823 2.907h-1.779a31.55 31.55 0 0 0 .956-2.907zm14.095 0a31.55 31.55 0 0 0 .333 1.127l-.88 1.78h-.275a27.03 27.03 0 0 0 .823-2.907h-.001zm-322.182.045l.903.746.85.704a23.67 23.67 0 0 0-.778 1.412h-.08c-.354-.221-.712-.43-1.07-.61-.164-.082-.334-.153-.499-.232l.674-2.02zm252.011.024l.892.39-.876.091c0-.161-.009-.321-.015-.481h-.001zm-104.331.009l.534.68c-.046.048-.097.092-.143.141-.171-.184-.355-.356-.536-.53l.134-.27.011-.022zm64.082.033l3.83 1.677a19.57 19.57 0 0 0-.831 1.117h-4.398c-.197-.265-.403-.523-.616-.774.789-.559 1.498-1.232 2.015-2.02zm-67.13.047l.105.212a13.03 13.03 0 0 0-.354.351l.249-.563zm-70.648.136l.116.191c-.291.671-.38 1.451-.335 2.171.008.091 0 .169 0 .249h-.651l.87-2.611zm237.886.031l.861 2.581h-.226l-.88-1.78.245-.801h0zm-86.907.251c0 .389.05.779.11 1.169-.139.107-.275.219-.41.331l-.823-.36c.383-.371.753-.756 1.124-1.139h-.001zm19.211.042l1.455 1.113c-1.015.267-2.016.579-2.999.94a2.27 2.27 0 0 0 .012-.244c0-.25-.015-.737-.021-1.128l1.553-.68zm-174.474.082c-.413.68-.668 1.427-.849 2.207h-2.784l.242-.723 3.391-1.484zm130.095.08l1.051 2.127h-2.101l1.05-2.127zm-108.847.033l1.621.71c0 .146 0 .291.008.434.028.437-.05.735-.192.95h-.358l-1.348-1.71c.096-.124.184-.253.269-.384h0zm191.369.064c.175.686.388 1.362.629 2.03h-.265a19.32 19.32 0 0 0-1.024-1.36l.66-.669h0zm-232.861.107l.254.854-.118.503-.624-.476.488-.881zm192.873.444a12.07 12.07 0 0 1-.364 1.479h-.588l-.475-.856 1.074-.47.353-.154zm10.377.097l-.696 1.257-.069.125h-.27c.094-.342.169-.685.227-1.03l.112-.049.696-.304zm-262.085.024l2.448 1.072.096.287h-4.187l.718-.594.925-.765zm196.266.039l.269 1.32h-.461l-1.028-.785 1.22-.534zm144.377.038c.009.064.009.126.015.189.053.369.129.733.223 1.091h-.666l.428-1.28zm-200.071.124l.234.169.248.987h-.645c.079-.385.137-.771.163-1.157h0zm159.947.024l-.248 1.131h-.31l.558-1.131zm-35.162.031h.001l2.513 1.1h-2.566c.046-.143.075-.299.052-.492-.024-.208-.018-.409 0-.608h0zm-96.464.143l.707.958h-1.237l.53-.958zm3.871 0l.707.958h-1.237l.53-.958zm-39.271.122l1.008.834h-1.526l.041-.197.477-.635v-.002zm72.693.18l-.086.654h-.276l.362-.654zm-82.001.069l1.334.585h-1.506c-.106-.036-.21-.075-.314-.114.162-.157.331-.306.486-.47h0zm180.578 0l.163.119c-.001-.021 0-.039 0-.059l.381.525h-.613l.069-.585zm-205.81.021c.12.19.249.375.371.564h-1.111c.255-.176.502-.365.74-.564zm5.118.11l.519.227.521.227h-1.291l.251-.454zm8.268.027l.102.428h-.161c-.08-.05-.157-.103-.237-.151l.296-.277h0zm126.713.047l.078.381h-.539l.461-.381zm-45.174.106l.295.274h-.922l.627-.274zm-145.801.018l.19.257h-.333l.143-.257zm3.872 0l.19.257h-.333l.143-.257zm174.29.002l.188.255h-.329l.141-.255zm63.721 0l.142.255h-.33l.188-.255zm-119.664.11l-.094.147h-.588c.216-.061.45-.122.682-.147h0z" fill="#101d19"/></g><g clip-path="url(#C)"><path d="M846.259 1.621c.004.006.007.015.011.021l-.003-.021h-.008zm.011.021l3.32 27.113-.188-.129.221.398.472 3.855-.196.774h-1.502l-2.339-1.787 1.407-2.54c-.955.006-1.936.071-2.833.425-.234.092-.432.218-.615.357l-.472-.599 2.799-8.391c-1.074.001-2.217.186-3.072.886-1.515 1.24-1.589 3.249-1.577 5.156l-1.469-1.863c.044.339.214.643.347.953l1.124 2.376v.053c-.008.311-.064.553-.152.754l-.038.003-1.87.197-.68-2.07c-.572-1.458-1.286-2.903-2.296-4.106l3.721-11.159c-.585.585-1.099 1.237-1.57 1.917-2.043 2.954-3.313 6.361-4.418 9.759a71.29 71.29 0 0 0-1.901 7.134 34.41 34.41 0 0 0-1.267.417l-.243-.185c-.177-.844-.369-1.685-.58-2.522-.89-3.524-1.966-7.076-3.789-10.232l.765-2.573c-.608.31-1.155.707-1.656 1.161-.947-1.39-2.087-2.709-3.604-3.482l1.706 5.736c-.076.11-.16.216-.234.328-1.921 2.906-3.083 6.223-4.005 9.577-.807.015-1.622.093-2.386.357-.547-2.717-1.24-5.403-2.096-8.037-.181-.555-.376-1.107-.568-1.66.036-.082.08-.16.115-.243.132-.309.303-.614.346-.953l-.607.77c-.952-2.688-2.079-5.325-3.703-7.673-.47-.68-.986-1.331-1.57-1.917l3.814 11.441-6.804 8.635c-.33-.227-.677-.428-1.043-.594-.111-.051-.224-.099-.341-.135l.946 1.284-1.175 1.492c-.361-.585-.738-1.16-1.143-1.716a15.05 15.05 0 0 0-2.999-3.083l2.861-23.359c-2.271 4.539-3.68 9.465-4.553 14.451-.355 2.027-.622 4.063-.826 6.104-.147.369-.282.742-.419 1.114-.444-.18-.9-.331-1.365-.451-.563-.561-1.159-1.087-1.795-1.55-3.914-2.849-8.61-4.612-13.396-5.175-.492-.058-.986-.101-1.482-.102l3.402 2.473 12.627 9.179c-.366.196-.717.421-1.055.661-.804-.571-1.686-1.037-2.631-1.321l1.231 2.49a14.72 14.72 0 0 0-1.61 1.837h-4.398a19.74 19.74 0 0 0-.801-1.08l1.866-2.565.305-.367.085-.171 1.348-1.852c-2.314.061-4.471.942-6.315 2.283a10.34 10.34 0 0 0-.843-.575l.191.346.278.502a14.7 14.7 0 0 0-1.988 1.87l-.262-1.211c-.797-3.428-1.742-7.077-4.216-9.714l1.792 12.535h-.421a14.19 14.19 0 0 0-1.828-1.52l.57-2.807a21.96 21.96 0 0 0-1.586 2.153c-.355-.207-.72-.397-1.091-.575-.581-2.746-1.345-5.457-2.341-8.079l.26-.779c-.18 0-.364.015-.547.027a42.68 42.68 0 0 0-1.466-3.277l.42 3.426c-.535.133-1.044.354-1.478.708-1.851 1.515-1.553 4.176-1.574 6.394-.014 0-.027-.002-.041-.002l.041.033v.247c-.035 1.514-1.171 1.541-2.043 1.926-.776-.271-1.564-.51-2.359-.726l-.224-1.016.563-.465a15.29 15.29 0 0 0-.671.024c-.434-1.811-.93-3.606-1.505-5.376-1.105-3.398-2.375-6.805-4.418-9.759-.471-.68-.985-1.331-1.57-1.917l5.748 17.238a16.16 16.16 0 0 0-1.844.415 51.27 51.27 0 0 0-4.023-.516c-.131-.012-.262-.018-.393-.027a23.33 23.33 0 0 0-1.947-3.36l.851-1.536c-.63.003-1.269.038-1.889.158-.043-.052-.081-.107-.124-.158l.036.176a5.73 5.73 0 0 0-.593.155c-.028.009-.053.024-.081.035l-3.327-4.22c.044.339.214.643.347.953.574 1.339 1.236 2.632 1.948 3.899-.589.556-.943 1.336-.937 2.167.008.903.416 2.44-1.03 2.363-.401-.021-.88.018-1.257.186v6.767.934 1.736 30.957h379.851V53.965v-1.465-7.673-12.51c-.65-1.366-1.5-2.632-2.66-3.589l2.66-1.937v-4.326c-2.28.87-4.46 2.029-6.44 3.468a15.07 15.07 0 0 0-3.14 3.073l-.09-2.139 1.32-1.011c-.45.177-.9.378-1.35.572-.2-3.467-.54-6.924-1.14-10.355-.88-4.987-2.29-9.912-4.56-14.451l2.72 22.157-.03.149c-.91.976-1.62 2.09-2.18 3.279.16-3.427-.02-6.878-.27-10.293l-2.64 12.997-3.64-4.612c.04.339.22.643.35.953.77 1.793 1.69 3.508 2.7 5.178-.85.604-1.67 1.235-2.49 1.878.01-.495.01-.991-.02-1.486-.04-.531-.12-1.144-.55-1.512-.13-.108-.28-.144-.43-.155.29 1.131.49 2.284.63 3.446l-.06.055h-.73c-.16-1.123-.34-2.241-.55-3.355.23-.097.47-.164.71-.147-.22-.877-.49-1.742-.83-2.589a19.29 19.29 0 0 0-.92-2.014 77.42 77.42 0 0 0-.95-3.357l3.3-9.894c-.58.585-1.1 1.237-1.57 1.917-1.09 1.576-1.96 3.282-2.7 5.045-.96-2.743-2.1-5.436-3.76-7.83-.47-.68-.98-1.331-1.57-1.917l4.23 12.662-.62 1.799c-1.03 3.163-1.82 6.403-2.4 9.679h-.56c-.24-1.384-.53-2.758-.86-4.123.33-1.95.45-3.936.3-5.91l-1.21 2.457c-.76-2.599-1.7-5.153-3.05-7.49l.77-2.575c-.61.31-1.16.707-1.66 1.161-.95-1.389-2.09-2.707-3.6-3.481l1.7 5.733c-.07.111-.16.218-.23.329-2.19 3.307-3.4 7.142-4.38 10.963l-3.49-7.059-.62-2.006a52.99 52.99 0 0 0-.57-1.66l.12-.243c.13-.309.3-.614.35-.953l-.61.77c-.95-2.688-2.08-5.325-3.71-7.673-.47-.68-.98-1.331-1.57-1.917l3.82 11.441-3.45 4.377c-.09-.552-.25-1.095-.52-1.617l-.43.787c-.89-4.373-2.22-8.67-4.22-12.666l2.04 16.603-1.62 2.917-.22.284c-.36-.586-.74-1.162-1.14-1.718-.84-1.154-1.86-2.209-3-3.084L1068 3.942c-2.27 4.539-3.68 9.465-4.55 14.451a78.99 78.99 0 0 0-.83 6.109c-.15.367-.28.739-.42 1.11-.44-.18-.9-.331-1.36-.451-.57-.561-1.16-1.088-1.8-1.55-3.91-2.849-8.61-4.612-13.39-5.175-.5-.058-.99-.101-1.49-.102l3.41 2.475 12.62 9.178a10.96 10.96 0 0 0-1.28.816c-1.07.805-1.99 1.781-2.78 2.851h-2.8l-1.02-2.282c-.28.139-.62.273-.94.251.6-.639 1.18-1.294 1.73-1.981l.16-.315-1.43 1.088.81-1.089c-.12.036-.23.084-.35.135-.44.201-.85.458-1.24.746-.31-1.595-.48-3.22-.55-4.847v.108c-.05 1.495-.21 2.992-.11 4.488.01.228.04.468.1.701-.23.207-.44.437-.65.668-.47-.478-.96-.929-1.5-1.337-.31-.237-.63-.458-.96-.66l.19.345 1.46 2.652c-.06.094-.14.183-.2.279a1.82 1.82 0 0 0-.11.194l-1.13.859h-2.18c-.64-1.248-1.38-2.438-2.23-3.551l-3.56-17.514c-.4 5.545-.64 11.187.51 16.664.01.058.03.113.04.171-3.37-2.712-6.99-5.165-10.93-6.977-.02-.889-.19-1.765-.61-2.592l-1.04 1.889c-.17-.068-.33-.146-.5-.212l.43.331-2.76 4.981-.76 1.373c-3.34-2.538-6.92-4.767-10.8-6.369l.42-.315c-.2.076-.39.167-.58.246-.2-.079-.39-.17-.58-.246l.41.315c-2.43 1.004-4.74 2.251-6.95 3.671l-3.14-5.662c-1.16 2.295-.5 4.969.47 7.223.03.064.07.125.1.188a75.48 75.48 0 0 0-3.18 2.442 17.35 17.35 0 0 0-.76.189l-.302-1.273-.111 1.396-.43.132a21.17 21.17 0 0 0-.647-.827l.2.987c-.706.259-1.392.567-2.052.925l-.735-1.329c.275-.317.546-.64.809-.968l.155-.315-1.177.9-.499-.9a5.76 5.76 0 0 0-.37.959c-.069-.085-.132-.174-.202-.259l.119.588a5.56 5.56 0 0 0-.08.4l-1.569 1.199.445-2.186a22.03 22.03 0 0 0-1.745 2.406l-.072-.031-.963-.421-.516-2.174-4.715-19.871c-.509 5.571-.61 11.337 1.056 16.722.395 1.277.913 2.572 1.62 3.735-.143.099-.293.189-.431.295-.164.125-.317.261-.474.393a38.11 38.11 0 0 0-3.305-.831c-.058-.03-.114-.062-.174-.09a2.81 2.81 0 0 0-.341-.135l.102.138c-.237-.046-.474-.085-.711-.127l-.012-.009v.009l-.757-.135a4.46 4.46 0 0 0 .089-.574l-1.003.439c-.939-.133-1.88-.246-2.82-.329-.694-.061-1.389-.108-2.086-.11l.156.067 2.798 1.226-2.03.889a10.85 10.85 0 0 0-.53-.366c-.285-.606-.739-1.116-1.436-1.39-.897-.353-1.876-.42-2.831-.426l1.449 2.616c-.176-.148-.347-.301-.532-.439-.479-.359-.991-.675-1.527-.942a26.81 26.81 0 0 0-.589-1.967l5.281-10.691c-1.31.393-2.5 1.124-3.527 2.02-1.462 1.276-2.618 2.843-3.549 4.54-.931-1.697-2.087-3.265-3.548-4.54-1.027-.896-2.217-1.627-3.527-2.02l5.28 10.69a24.18 24.18 0 0 0-.265.828c-.457.063-.907.163-1.337.332-1.493.588-1.906 2.238-1.817 3.652.027.437-.051.735-.193.95h-4.779a43.45 43.45 0 0 0-.216-2.417l5.965-2.611c-.697.002-1.391.049-2.085.11a51.22 51.22 0 0 0-4.161.539l-.241-1.346c-.823-3.904-2.488-7.656-5.062-10.726l2.569 12.63c-1.145.276-2.277.605-3.388.992l-2.629-2.009 2.363-11.613c-2.575 3.07-4.239 6.822-5.062 10.726-.399 1.892-.622 3.804-.739 5.725h-1.417l3.347-16.451c-2.575 3.07-4.239 6.822-5.062 10.726a36.46 36.46 0 0 0-.502 3.139 22.04 22.04 0 0 0-1.765-2.442l.676 3.322c-.893.064-2.008.193-1.943-1.053.044-.835-.163-2.017-1.292-1.889-2.276.26-3.982-2.233-6.082-3.138-1.602-.69-3.415-1.207-5.155-1.041 0-1.54-.175-3.077-.616-4.598l-4.197 12.585c-.46-.604-.963-1.172-1.51-1.697l1.231-2.492c-.945.284-1.826.75-2.629 1.321-.464-.329-.955-.619-1.469-.862l.227-.459c-.235.071-.466.156-.694.247-.228-.091-.459-.177-.695-.247l.228.459c-.244.115-.482.24-.715.376l-.61-.411.412.524c-.19.117-.374.243-.556.373-.271-.192-.551-.37-.839-.534l2.037-4.579c-.318.173-.59.418-.85.664-.998.946-1.734 2.119-2.331 3.359a8.31 8.31 0 0 0-.646-.231l.39.79c-.137.31-.277.619-.4.932-.332.847-.603 1.712-.827 2.589.141-.009.285.009.431.052-.162.219-.323.438-.475.664h-.121l.165-.716c-.124.009-.242.037-.35.106l-2.717-13.346c-.217 3.006-.379 6.04-.306 9.062-.556.251-1.063.576-1.53.954l-2.019-14.125c-.238 4.557-.431 9.158-.356 13.741l-.053-.044c-.31-.237-.633-.459-.967-.66l1.039 1.876c.016.588.052 1.174.078 1.762l-.664.508-3.562-10.684c-.526 1.817-.681 3.656-.598 5.495-.458-.659-.97-1.28-1.534-1.854 1.312-2.063 2.498-4.195 3.461-6.441.133-.309.304-.614.347-.953l-4.983 6.322c-.239-.198-.477-.4-.727-.581-3.914-2.849-8.61-4.612-13.396-5.175-.492-.058-.986-.101-1.482-.102l.156.113 12.7 9.234-.662.84.072-.359c-.225.269-.436.548-.647.828a16.15 16.15 0 0 0-4.925-.828l.966.799-.241-.099.389.298c-.774.405-1.452.967-2.051 1.608-.491-.191-.985-.37-1.485-.538.975-1.618 1.586-3.436 1.637-5.358l-4.634 3.369a15.79 15.79 0 0 0-.55.064c-.106-1.352-.444-2.633-1.524-3.517-.855-.699-1.998-.885-3.071-.885l1.589 4.769c-1.108-.169-2.221-.304-3.331-.401-.694-.061-1.389-.108-2.085-.11l1.713.751-1.114.851-.499-.901a5.73 5.73 0 0 0-.509 1.553c-.451-.619-.961-1.189-1.557-1.672l.531-1.594 1.701-5.101c-1.073.001-2.216.185-3.071.884-1.927 1.577-1.52 4.409-1.574 6.676-.027 1.163-.705 1.446-1.412 1.689a33.08 33.08 0 0 0-1.849-.63c-.205-.329-.421-.652-.642-.97l.851-1.536c-.629.003-1.265.044-1.885.165-.044-.054-.083-.111-.128-.165l.036.18a5.28 5.28 0 0 0-.854.244c-.585.23-.999.628-1.288 1.106-.479-.094-.96-.181-1.442-.259a4.46 4.46 0 0 0 .089-.574l-1.003.439c-.635-.09-1.271-.167-1.908-.234l12.21-8.877c-.496.002-.989.044-1.48.102-4.787.563-9.484 2.326-13.398 5.175-.049.036-.094.078-.143.114l-.225-.285a1.73 1.73 0 0 0 .108.379c-1.075.818-2.058 1.781-2.877 2.866-.154-4.333-.519-8.653-1.268-12.934-.872-4.978-2.276-9.896-4.54-14.429v.001zm204.23 23.717c.02-.882-.04-3.137-.04-2.343-.01.779.01 1.561.04 2.343zm-37.46-3.384l6.15 4.702 3.98 3.04-.07.124c-.75-.116-1.51-.21-2.27-.291a5.63 5.63 0 0 0-.36-.923l-.46.837-.27-.027c-.62-.055-1.24-.094-1.87-.103l.01-.006c-.03 0-.07.003-.11.003s-.07-.003-.11-.003l.01.006c-.62.009-1.25.048-1.87.103-1.13.099-2.27.235-3.39.409l-.82-.386v-.002l-1.14-.5.24-.334c-.11.036-.23.087-.34.138-.06.027-.11.058-.17.086l-.54-.223.39.298a7.36 7.36 0 0 0-1.59 1.13l-1.78-3.203 6.38-4.875zm-199.736.563l.696 2.089a6.4 6.4 0 0 0-.472.406c-1.393 1.321-2.291 3.079-2.986 4.852-.059.149-.105.303-.16.453-.217-.17-.445-.325-.679-.47l.299-.541c-.194.117-.374.253-.559.382a6.65 6.65 0 0 0-.474-.243c1.583-2.231 3.069-4.522 4.335-6.929h0zm264.766 0l.7 2.089c-.17.128-.32.263-.47.406-.24.22-.45.458-.66.701l-.63-1.277a47.17 47.17 0 0 0 1.06-1.918h0zm-48.85.622l3.49 2.667 4.79 3.658a20.46 20.46 0 0 0-.53.669c-1.58-.528-3.25-.81-4.92-.827l.66.544 2.86 2.37a33.22 33.22 0 0 0-.78 1.414h-.08c-.35-.221-.71-.43-1.07-.61-2.11-1.064-4.35-1.849-6.64-2.424l-.77-.65c.69-.944 1.5-1.871 1.94-2.89.52-1.225.95-2.574 1.05-3.92h0zm-204.125.538l2.746 9.239c-.077.038-.157.069-.233.108-.358.18-.716.388-1.071.61h-3.167l.138-.465c-.268.137-.52.297-.766.465h-.156l-.288-.553 2.797-9.404zm264.765 0l.7 2.362-3.52 7.145 2.82-9.507zm-253.591.932l2.291 5.155a45.39 45.39 0 0 0-2.28.383l.231-.691a11.8 11.8 0 0 0-.71.793c-.511.107-1.02.218-1.526.345l1.994-5.984zm242.611.332l1.6 4.793-.45.812-1.92-3.879.77-1.726zm-264.767.002l1.853 5.554c-.089.108-.176.218-.248.337l-1.89-1.443.047-.085c-.029.018-.055.039-.084.056l-.073-.056.039.08c-.291.181-.577.372-.85.58a13.85 13.85 0 0 0-1.494 1.335c-.028-.031-.058-.062-.086-.093l2.786-6.266zm262.427.268c0 .648.02 1.296.07 1.942-.51.86-.94 1.783-1.3 2.711-.33.847-.6 1.712-.83 2.589a1.41 1.41 0 0 1 .57.09l-.52.951-.09-.892c.01-.05.03-.099.04-.149-.02.002-.03-.002-.05 0l-.41-3.255c.02-.082.05-.165.07-.247a79.24 79.24 0 0 0 2.45-3.739h0zm24.28.064l2.78 8.358h-1.32l-1.88-1.552.88-2.627c-.58.585-1.1 1.237-1.57 1.917-.5.729-.96 1.484-1.38 2.261h-.3l2.79-8.358zm-330.036.294l.527 4.296c-.602-.163-1.215-.289-1.831-.381l1.304-3.915zm155.927.921l3.979 2.202c-.148.092-.289.195-.433.294a6.26 6.26 0 0 0-.486-.248 2.82 2.82 0 0 0-.341-.136l.465.631c-.015.012-.03.018-.044.031-.534.409-1.028.858-1.494 1.337-.58-.639-1.237-1.207-1.988-1.624.149-.827.274-1.656.342-2.487v-.001zm-175.28 1.711l1.152 1.743.524 2.573c-.644-1.103-1.455-2.093-2.488-2.849l.812-1.467zm252.809.476c.65.883 1.37 1.741 1.8 2.657-1.42.468-2.8 1.017-4.14 1.689-.36.18-.72.389-1.07.61h-.08a20.29 20.29 0 0 0-.779-1.412l.219-.185 3.3-2.73-.08.002.65-.498.18-.132zm-73.489.05l.591.328 1.582.875a14.67 14.67 0 0 0-.696.672c-.507-.558-1.071-1.062-1.709-1.456l.232-.418zm18.622.255c.59.736 1.222 1.433 1.873 2.114-.856.324-1.699.683-2.524 1.086l.651-3.2zm-41.017.066c0 .091.008.182.008.273l-.481.367.473-.639zm101.954.069l1.14.87a41.43 41.43 0 0 0-2.09.422l.95-1.291zm112.83.041l.58 2.428c-.63-.126-1.28-.16-1.92-.163l1.22 2.208h-6l.02-.035 6.1-4.438zm-227.355.074l.812.591a22.41 22.41 0 0 0-.643.934c-.298-.174-.604-.335-.914-.489l.745-1.036h0zm195.735.009h0l.03.108-.04-.074c0-.012.01-.024.01-.035h0zm-73.75.111l1.84.804-.8 1.437a45.58 45.58 0 0 0-2.34.437c-.69-.417-1.38-.817-2.08-1.199l.09-.041 1.01-.44 2.28-.998zm-142.319.015l1.656.726.202.088a15.03 15.03 0 0 0-2.271 1.346l-.521-.939a28.85 28.85 0 0 0 .809-.97l.125-.251zm-61.66.085l.084.166a31.27 31.27 0 0 0 1.566 1.81c-.223.62-.295 1.309-.254 1.953.008.091 0 .169 0 .249h-2.179a9.8 9.8 0 0 0-.587-1.052c-.063-.096-.139-.186-.205-.281l1.575-2.846zm223.789.069l2.4 1.834c-.03.034-.05.067-.07.102-.79-.462-1.63-.85-2.49-1.166l.16-.77zm-111.32.03l1.367 1.852c-.594.699-1.131 1.45-1.626 2.227h-.767a45.85 45.85 0 0 0 1.026-4.079h0zm-117.413.067l.233.315c-.014.012-.029.018-.043.031a13.44 13.44 0 0 0-1.198 1.05l1.008-1.396h0zm121.377.059l1.118 1.515.155.212a19.87 19.87 0 0 0-1.387 1.859 9.77 9.77 0 0 0-.745-1.384c-.063-.096-.139-.184-.205-.279l1.064-1.923zm-40.73.139l.716.547.198.152 1.188.983-1.03 1.307c-.291-.174-.585-.339-.876-.486-.501-.252-1.009-.485-1.523-.707l1.327-1.796zm18.887.024c.057 1.268.168 2.531.334 3.79h-.473a21.57 21.57 0 0 0-1.08-1.547l-.116-.809c.454-.47.907-.94 1.335-1.434h0zm79.427.105a10.21 10.21 0 0 0 .77 1.034c-.373-.137-.75-.262-1.129-.386l.359-.649zm-70.687.063l.211.425-.308-.226.097-.199zm-97.772.177l-.254.933c-.018.071-.033.142-.05.213-.08-.055-.158-.114-.24-.166l.544-.98zm37.589.018l.348.641-1.799.787c-.031-.101-.064-.202-.102-.299l1.553-1.128zm-106.62.009l.812 3.421h-2.706l1.035-1.87.859-1.552zm146.884.053l1.37.997-.536.969a14.19 14.19 0 0 0-1.068-.817l.234-1.149zm-142.093.012l1.183.52.201.088c-.219.105-.434.214-.648.329l-.736-.937zm178.605.091l4.913 2.721.585.545h-4.593v-.003c-.164-.107-.347-.139-.535-.146.021.049.037.099.057.149h-.982c.292-.082.616-.16.925-.149-.232-.557-.512-1.095-.845-1.603-.062-.096-.139-.184-.205-.279l.68-1.235zm-124.306.012l.646.875c-.125.397-.237.796-.34 1.199.199-.015.408.024.607.1-.279.351-.547.71-.802 1.08h-.072a25 25 0 0 1 .267-1.18c-.152.012-.3.048-.427.155-.185.157-.295.365-.376.586a9.44 9.44 0 0 0-.362-.613c-.063-.096-.139-.184-.205-.279l1.064-1.923zm61.933.002l.194.821.224.945-.224.171-.82.627c-.065-.032-.133-.06-.199-.092l.825-2.471zm205.799.343c.21.984.49 1.955.82 2.907h-1.78c.37-.953.69-1.923.96-2.907zm14.09 0l.33 1.127-.87 1.78h-.28c.33-.952.6-1.923.82-2.907h0zm-322.18.045l.903.746.85.704a23.67 23.67 0 0 0-.778 1.412h-.08c-.354-.221-.712-.43-1.07-.61-.164-.082-.334-.153-.499-.232l.674-2.02zm252.01.024l.89.39-.87.091c0-.161-.01-.321-.02-.481h0zm-104.33.009l.534.68c-.046.048-.097.092-.143.141-.171-.184-.355-.356-.536-.53l.134-.27.011-.022zm64.082.033l3.83 1.677a19.57 19.57 0 0 0-.831 1.117h-4.398c-.197-.265-.403-.523-.616-.774.789-.559 1.498-1.232 2.015-2.02zm-67.13.047l.105.212a13.03 13.03 0 0 0-.354.351l.249-.563zm-70.648.136l.116.191c-.291.671-.38 1.451-.335 2.171.008.091 0 .169 0 .249h-.651l.87-2.611zm237.886.031l.86 2.581h-.23l-.87-1.78.24-.801h0zm-86.907.251c0 .389.05.779.11 1.169-.139.107-.275.219-.41.331l-.823-.36c.383-.371.753-.756 1.124-1.139h-.001zm19.207.042l1.46 1.113c-1.02.267-2.02.579-3 .94.01-.083.01-.166.01-.244 0-.25-.01-.737-.02-1.128l1.55-.68zm-174.47.082c-.413.68-.668 1.427-.849 2.207h-2.784l.242-.723 3.391-1.484zm130.095.08l1.051 2.127h-2.101l1.05-2.127zm-108.847.033l1.621.71c0 .146 0 .291.008.434.028.437-.05.735-.192.95h-.358l-1.348-1.71c.096-.124.184-.253.269-.384h0zm191.372.064c.17.686.39 1.362.63 2.03h-.27c-.32-.468-.66-.924-1.02-1.36l.66-.669h0zm-232.864.107l.254.854-.118.503-.624-.476.488-.881zm192.874.444a12.43 12.43 0 0 1-.36 1.479h-.59l-.48-.856 1.08-.47.35-.154zm10.38.097l-.7 1.257-.07.125h-.27c.09-.342.17-.685.23-1.03l.11-.049.7-.304zm-262.089.024l2.448 1.072.096.287h-4.187l.718-.594.925-.765zm196.266.039l.269 1.32h-.461l-1.028-.785 1.22-.534zm144.373.038c.01.064.01.126.02.189.05.369.13.733.22 1.091h-.66l.42-1.28zm-200.067.124l.234.169.248.987h-.645c.079-.385.137-.771.163-1.157h0zm159.947.024l-.25 1.131h-.31l.56-1.131zm-35.16.031h0l2.51 1.1h-2.56c.04-.143.07-.299.05-.492-.03-.208-.02-.409 0-.608h0zm-96.466.143l.707.958h-1.237l.53-.958zm3.871 0l.707.958h-1.237l.53-.958zm-39.271.122l1.008.834h-1.526l.041-.197.477-.635v-.002zm72.693.18l-.086.654h-.276l.362-.654zm-82.001.069l1.334.585h-1.506c-.106-.036-.21-.075-.314-.114.162-.157.331-.306.486-.47h0zm180.574 0l.17.119v-.059l.38.525h-.62l.07-.585zm-205.806.021c.12.19.249.375.371.564h-1.111c.255-.176.502-.365.74-.564zm5.118.11l.519.227.521.227h-1.291l.251-.454zm8.268.027l.102.428h-.161c-.08-.05-.157-.103-.237-.151l.296-.277h0zm126.713.047l.078.381h-.539l.461-.381zm-45.174.106l.295.274h-.922l.627-.274zm-145.801.018l.19.257h-.333l.143-.257zm3.872 0l.19.257h-.333l.143-.257zm174.29.002l.188.255h-.329l.141-.255zm63.72 0l.14.255h-.33l.19-.255zm-119.663.11l-.094.147h-.588c.216-.061.45-.122.682-.147h0z" fill="#101d19"/></g><defs><clipPath id="A"><path fill="#fff" d="M0 0h375v69H0z"/></clipPath><clipPath id="B"><path fill="#fff" transform="translate(374)" d="M0 0h375v69H0z"/></clipPath><clipPath id="C"><path fill="#fff" transform="translate(749)" d="M0 0h375v69H0z"/></clipPath></defs></svg>