<svg xmlns="http://www.w3.org/2000/svg" width="84" height="345" fill="none" ><g clip-path="url(#A)"><path d="M68.386 161.437l-7.984-30.172-37.171 4.324V345h45.154V161.437z" fill="#0e0e0f"/><path d="M78.219 51.346h-.093c-3.725-1.489-7.735-2.127-11.737-1.867L32.45 50.606l9.305-6.328 1.141 1.095.937-1.095-.068-.834 11.005 6.365 5.434-4.58a27.54 27.54 0 0 0 6.203-7.467L73.07 26.04c.222-.506.301-1.064.23-1.612a3.04 3.04 0 0 0-.633-1.499L61.414 8.711c-1.048-1.369-2.283-1.481-4.466-1.388l-12.128 3.733a5.49 5.49 0 0 1-2.872-.149c-2.81-.927-9.305-3.858-9.305-3.858-.751.255-8.685 5.09-9.411 5.42l-3.449 8.649.205 5.5a53.26 53.26 0 0 0 1.724 11.667l.968 3.659c.341 1.938 1.268 3.723 2.655 5.115l5.136 3.615-4.559.149c-.116-.006-.232-.006-.347 0-4.175-2.371-5.062-6.845-7.103-15.693C12.258 8.213 30.099-1.58 47.574.174c19.789 2.01 27.177 6.726 33.232 38.889 1.179 6.191.093 9.993-2.587 12.283z" fill="#50473d"/><path d="M83.311 70.691l-1.383 4.013v10.833l-2.581 19.363c0 .492-4.907 14.28-4.907 14.28l2.947 5.084-.819 9.439c-1.185 4.978-.62 6.845-6.11 6.845l-6.718-.728a.99.99 0 0 0-.375.113.98.98 0 0 0-.302.25.99.99 0 0 0-.182.347 1 1 0 0 0-.034.391l.304 2.725-10.794 3.615-3.765-8.207-20.124 21.641-8.753 23.645-3.517-.821-1.929 5.239-13.232-3.174 1.123-5.195L0 179.239l8.015-23.645-2.289-.491-.98-9.832.161-11.324-.385-3.765 1.123-22.487 2.37-10.503-1.861 1.394c-.875-.342-1.123-1.736-.819-2.626l10.719-31.591c-.819-3.285.54-5.133 1.141-5.868l5.806-6.222a3.96 3.96 0 0 1 2.599-1.425c.116-.006.232-.006.347 0l4.56-.149 1.96-.068 33.908-1.164c4.002-.26 8.011.378 11.737 1.867h.093l2.115.554c.955.261 2.947 4.86 3.189 5.824l.385 7.884c.235 1.719.034 3.469-.583 5.09z" fill="#53493e"/><path d="M72.666 22.904L61.414 8.711c-1.048-1.369-2.283-1.481-4.466-1.388l-12.128 3.733a5.49 5.49 0 0 1-2.872-.149c-2.81-.927-9.305-3.858-9.305-3.858-.751.255-8.685 5.09-9.411 5.42l-3.449 8.649.205 5.5a53.26 53.26 0 0 0 1.724 11.667l.968 3.659c.341 1.938 1.268 3.723 2.655 5.115l5.136 3.615 1.96-.069 9.305-6.328-.794-5.264 2.481-.18.385 4.611 10.961 6.365 5.434-4.58a27.54 27.54 0 0 0 6.203-7.467L73.07 26.04c.226-.509.309-1.072.237-1.625a3.04 3.04 0 0 0-.641-1.511h0zM36.892 39.2c-2.041 1.394-6.055-1.692-8.468-7.386s-2.078-11.281.732-12.525 8.064 3.41 9.621 9.389c1.545 5.843.341 8.985-1.886 10.522zm21.582-8.027c-4.02 5.102-9.795 7.224-12.916 4.773-2.723-2.141-3.579-9.956 1.656-13.689 5.099-3.709 10.726-6.39 12.922-4.835 3.22 2.346 2.364 8.63-1.662 13.733v.019z" fill="#5a5046"/><path d="M34.851 25.561a3.09 3.09 0 0 0-1.29.133 3.1 3.1 0 0 0-1.123.65 3.11 3.11 0 0 0-.76 1.054 3.12 3.12 0 0 0-.264 1.274c-.093 1.867.949 4.181 3.027 4.356 1.52.149 3.027-1.369 3.232-3.068.254-2.134-1.073-4.113-2.822-4.399zm-.298 6.079c-.461 0-.912-.137-1.296-.394a2.34 2.34 0 0 1-.859-1.05c-.176-.428-.223-.898-.133-1.352a2.34 2.34 0 0 1 .638-1.198 2.33 2.33 0 0 1 1.194-.64c.453-.09.921-.044 1.348.133s.791.477 1.047.862.393.837.393 1.3a2.34 2.34 0 0 1-.176.896c-.117.284-.289.542-.505.76s-.474.39-.758.507a2.32 2.32 0 0 1-.894.176h0z" fill="#d3b92a"/><path d="M38.777 28.678c-1.557-5.98-6.768-10.584-9.622-9.389s-3.151 6.845-.732 12.507 6.427 8.78 8.468 7.404c2.227-1.537 3.431-4.679 1.886-10.522zm-1.104 1.313c-.205 1.699-1.712 3.217-3.232 3.068-2.078-.199-3.102-2.52-3.027-4.356a3.12 3.12 0 0 1 .264-1.274 3.11 3.11 0 0 1 .76-1.054 3.1 3.1 0 0 1 1.123-.65 3.09 3.09 0 0 1 1.29-.133c1.749.255 3.077 2.234 2.823 4.399z" fill="#302e2f"/><path d="M36.885 29.301c.001.463-.135.916-.39 1.302s-.619.686-1.045.864-.895.225-1.348.136a2.33 2.33 0 0 1-1.196-.639 2.34 2.34 0 0 1-.64-1.198c-.091-.454-.045-.925.132-1.353a2.34 2.34 0 0 1 .859-1.051 2.33 2.33 0 0 1 2.944.288c.437.437.684 1.031.685 1.65h0z" fill="#231f20"/><path d="M52.295 24.454a3.45 3.45 0 0 0-1.92.584c-.568.381-1.011.922-1.273 1.555s-.33 1.33-.197 2.003a3.47 3.47 0 0 0 .946 1.774 3.45 3.45 0 0 0 1.769.948c.67.134 1.365.065 1.996-.197s1.171-.707 1.551-1.277.582-1.24.582-1.925a3.47 3.47 0 0 0-1.012-2.451 3.45 3.45 0 0 0-2.443-1.015h0zm-.918 5.513a2.04 2.04 0 0 1-1.14-.343 2.05 2.05 0 0 1-.757-.921 2.06 2.06 0 0 1-.118-1.188c.079-.399.274-.765.561-1.053s.652-.483 1.05-.562a2.04 2.04 0 0 1 1.184.118 2.05 2.05 0 0 1 .918.759c.224.339.344.736.342 1.143a2.05 2.05 0 0 1-.598 1.448 2.04 2.04 0 0 1-1.443.599h0z" fill="#d3b92a"/><path d="M60.136 17.422c-2.196-1.58-7.822 1.101-12.922 4.773-5.236 3.771-4.38 11.567-1.656 13.689 3.102 2.452 8.896.33 12.916-4.772s4.882-11.343 1.662-13.689zm-7.841 13.963a3.45 3.45 0 0 1-1.92-.584c-.568-.381-1.011-.922-1.273-1.556s-.33-1.33-.197-2.002a3.47 3.47 0 0 1 .946-1.775 3.45 3.45 0 0 1 1.769-.949c.67-.134 1.365-.065 1.996.197s1.171.706 1.551 1.276.582 1.24.582 1.925a3.47 3.47 0 0 1-1.012 2.451 3.45 3.45 0 0 1-2.443 1.015h0z" fill="#302e2f"/><path d="M51.376 25.866a2.04 2.04 0 0 0-1.139.343 2.05 2.05 0 0 0-.757.92 2.06 2.06 0 0 0-.119 1.187c.078.399.273.765.559 1.053s.651.484 1.048.564a2.04 2.04 0 0 0 1.184-.116 2.05 2.05 0 0 0 .92-.756 2.06 2.06 0 0 0 .346-1.142c0-.543-.215-1.065-.597-1.45s-.902-.602-1.444-.604h0zm-.657 2.489c-.13 0-.257-.039-.365-.111s-.193-.175-.242-.296a.66.66 0 0 1 .142-.719.66.66 0 0 1 .337-.18c.128-.025.26-.012.38.038s.223.134.295.243a.66.66 0 0 1 .111.366c0 .086-.017.172-.05.252s-.082.152-.143.213a.65.65 0 0 1-.465.189v.006z" fill="#231f20"/><g fill="#fff"><path d="M51.376 27.689a.66.66 0 0 1-.388.667.66.66 0 0 1-.266.057c-.091 0-.182-.019-.266-.057s-.159-.092-.221-.16a.66.66 0 0 1 .046-.931.66.66 0 0 1 .884 0 .66.66 0 0 1 .213.424h0zM35.21 29.307a.66.66 0 0 1-.388.667.66.66 0 0 1-.266.057c-.091 0-.182-.019-.266-.057a.66.66 0 0 1-.176-1.092.66.66 0 0 1 .884 0 .66.66 0 0 1 .213.424h0z"/></g><g fill="#d38429"><path d="M43.777 43.438l-.422-.243-1.588 1.083-.825-5.264 2.45-.18.385 4.605z"/><path d="M43.846 44.278l-.937 1.095-1.141-1.095 1.588-1.083.422.243.068.84z"/></g></g><defs><clipPath id="A"><path fill="#fff" d="M0 0h84v345H0z"/></clipPath></defs></svg>